<?xml version="1.0" encoding="utf-8"?>
<!-- Generator: Adobe Illustrator 27.3.1, SVG Export Plug-In . SVG Version: 6.00 Build 0)  -->
<svg version="1.1" id="a" xmlns="http://www.w3.org/2000/svg" xmlns:xlink="http://www.w3.org/1999/xlink" x="0px" y="0px"
	 viewBox="0 0 596.3 842.9" style="enable-background:new 0 0 596.3 842.9;" xml:space="preserve">
<style type="text/css">
	.st0{fill:none;}
	.st1{fill:url(#SVGID_1_);}
	.st2{clip-path:url(#SVGID_00000047779254053405711730000004566166065251564945_);}
	.st3{fill:url(#SVGID_00000067938564271846322790000012959861175623016346_);}
	.st4{fill:url(#SVGID_00000162320197898371733640000018224724061256504984_);}
	.st5{clip-path:url(#SVGID_00000060015938119735619900000012917184470274656907_);}
	.st6{fill:url(#SVGID_00000166674096843259512740000015079542173254120886_);}
	.st7{fill:url(#SVGID_00000147919495300675034620000012502199892087185024_);}
	.st8{clip-path:url(#SVGID_00000029022931058923280880000016003561504410322859_);}
	.st9{fill:url(#SVGID_00000023280058117096269140000007834281451441663616_);}
	.st10{fill:url(#SVGID_00000059996526479653227620000003618703675513863854_);}
	.st11{clip-path:url(#SVGID_00000156574133292385984370000010042271270266522288_);}
	.st12{fill:url(#SVGID_00000183241214567989781920000005246294597430397060_);}
	.st13{fill:url(#SVGID_00000021810769815314457040000010003331110050620290_);}
	.st14{clip-path:url(#SVGID_00000152949098802956159990000012380280684664027296_);}
	.st15{fill:url(#SVGID_00000101814965962142728310000013108218279238610859_);}
	.st16{fill:url(#SVGID_00000132074379117992004260000004723915113224682171_);}
	.st17{clip-path:url(#SVGID_00000143615088687694351360000007133849831666907032_);}
	.st18{fill:url(#SVGID_00000170978164243732699100000007685061091264081025_);}
	.st19{fill:url(#SVGID_00000016765645390924439490000000273993300664039861_);}
	.st20{clip-path:url(#SVGID_00000051372547932766378580000012754926141948292235_);}
	.st21{fill:url(#SVGID_00000123435945639060445730000017721152488087777414_);}
	.st22{fill:url(#SVGID_00000174580240248517115940000014020976931505270683_);}
	.st23{clip-path:url(#SVGID_00000124870697869714103550000004158660889935543991_);}
	.st24{fill:url(#SVGID_00000096055254722348986570000009599272504937536910_);}
	.st25{fill:url(#SVGID_00000144306216161272948220000016790920074065532562_);}
	.st26{clip-path:url(#SVGID_00000177478133553557666950000000680557569349973182_);}
	.st27{fill:url(#SVGID_00000059271996124956265150000011824236449516912819_);}
	.st28{fill:url(#SVGID_00000163041496453466906690000001165138243404841645_);}
	.st29{clip-path:url(#SVGID_00000096016908623363085930000010030737288738271125_);}
	.st30{fill:url(#SVGID_00000146501840810426723980000015578081514977546375_);}
	.st31{fill:url(#SVGID_00000178163899763346663280000015659525437468984982_);}
	.st32{clip-path:url(#SVGID_00000113332077989647471600000006342731099080878209_);}
	.st33{fill:url(#SVGID_00000056424995623339279160000001055902892119753863_);}
	.st34{fill:url(#SVGID_00000089562804279092539930000012773575706112891264_);}
	.st35{clip-path:url(#SVGID_00000045610818423211249090000005539799185877921164_);}
	.st36{fill:url(#SVGID_00000109003432562528507050000013554255558992374954_);}
	.st37{fill:url(#SVGID_00000053546976785849577880000018314472316854030983_);}
	.st38{clip-path:url(#SVGID_00000034076883960879880570000013465969683483141292_);}
	.st39{fill:url(#SVGID_00000052814545378391157100000010475169090888625044_);}
	.st40{fill:url(#SVGID_00000035530283576681282970000008764976025702802838_);}
	.st41{fill:url(#SVGID_00000176727664375968814920000001041609243053033602_);}
	.st42{fill:url(#SVGID_00000130606726934289508340000001942545886893425062_);}
	.st43{fill:url(#SVGID_00000077322570375618030920000006058458082942078343_);}
	.st44{fill:url(#SVGID_00000147182576630710598830000009757685036827804820_);}
	.st45{fill:url(#SVGID_00000055684732276259678760000012632772296162914992_);}
	.st46{fill:url(#SVGID_00000101820370387121962510000002165490639679835278_);}
	.st47{fill:url(#SVGID_00000017479248506814407030000012905996095611515791_);}
	.st48{fill:url(#SVGID_00000150065182950679016820000004359444264549531526_);}
	.st49{fill:url(#SVGID_00000062871521757135709520000000905972800242189499_);}
	.st50{fill:url(#SVGID_00000106110840505970380410000008450371542119907719_);}
	.st51{fill:url(#SVGID_00000175306833892318835330000013675285239030952625_);}
	.st52{fill:url(#SVGID_00000101808077863590048520000009728011622446985352_);}
	.st53{fill:url(#SVGID_00000074432658994250908310000013383106353375311527_);}
	.st54{fill:url(#SVGID_00000059285434212925376850000003899267893463070885_);}
	.st55{fill:url(#SVGID_00000129191850092948377870000006297620936910182069_);}
	.st56{fill:url(#SVGID_00000041267208482213576160000002811980946783825850_);}
	.st57{fill:url(#SVGID_00000073000064059125475020000012720509017384726456_);}
	.st58{fill:url(#SVGID_00000117648282467172595760000001671309945583227316_);}
	.st59{fill:url(#SVGID_00000106857929674565846900000005682341504217136810_);}
	.st60{fill:url(#SVGID_00000156550478363386308930000017314046383582306748_);}
	.st61{fill:url(#SVGID_00000062161750979914956870000007269970958871045023_);}
	.st62{fill:url(#SVGID_00000032640687535165910460000000092892910543189427_);}
	.st63{fill:url(#SVGID_00000086687503773475175700000005320249735203949990_);}
	.st64{fill:url(#SVGID_00000159437917376404373020000011863297863338673316_);}
	.st65{fill:url(#SVGID_00000066496699500069252270000009232263365603313542_);}
	.st66{fill:url(#SVGID_00000036231348851024123980000000204370022642704029_);}
	.st67{fill:url(#SVGID_00000023966188781331687620000003949926283418120895_);}
	.st68{fill:url(#SVGID_00000178200197524073748400000010464395119409589949_);}
	.st69{fill:url(#SVGID_00000105402396712365935020000010349223513593442944_);}
	.st70{fill:url(#SVGID_00000135668802887148568730000001479254866508603047_);}
	.st71{fill:url(#SVGID_00000118365381188736451140000003638419874880183442_);}
	.st72{fill:url(#SVGID_00000123421949150900173580000009498363100754250657_);}
	.st73{fill:url(#SVGID_00000013893858976268872500000016728985758570622080_);}
	.st74{fill:url(#SVGID_00000126287117461151870720000014818785179855162815_);}
	.st75{fill:url(#SVGID_00000147199179582019420970000018444668417804247702_);}
	.st76{fill:url(#SVGID_00000094612671965866118260000004602379415549649572_);}
	.st77{fill:#BFBFBE;}
</style>
<g id="b">
	<rect x="0.5" y="0.5" class="st0" width="595.3" height="841.9"/>
	<g>
		
			<linearGradient id="SVGID_1_" gradientUnits="userSpaceOnUse" x1="214.63" y1="-896.2501" x2="301.84" y2="-896.2501" gradientTransform="matrix(1 0 0 -1 0 -520)">
			<stop  offset="0" style="stop-color:#B09C64"/>
			<stop  offset="0.58" style="stop-color:#E0CA91"/>
			<stop  offset="1" style="stop-color:#A8965D"/>
		</linearGradient>
		<path class="st1" d="M232.1,304.7c-1.4,2.5-2.5,5.1-3.3,7.8c-0.8,2.8-1.1,5.7-1.2,8.6s0.1,5.7,0.4,8.5c0.3,2.8,0.6,5.6,1,8.4
			s0.7,5.5,0.8,8.1c0,0.7,0,1.3-0.1,1.8c0,0.1-0.1,0.2-0.1,0.4c-1.8,0.4-4.6,0.4-7.9-2.2c0,0,2.2,4.2,7.1,4.6
			c-0.4,0.8-0.8,1.5-1.2,2.2c-1.4,2.2-3.1,4.4-4.9,6.5l-5.4,6.4c-0.9,1.1-1.8,2.2-2.7,3.3c-0.9,1.2-1.8,2.3-2.5,3.9
			c-0.2,0.4-0.4,0.8-0.5,1.3s-0.3,1.1-0.2,2c0.2,1.3,0.7,2.2,1.2,3c1.1,1.5,2.3,2.5,3.5,3.4c2.3,1.8,4.8,3.2,7,4.5l-0.2,0.6
			c-0.4,1.2-1,2.4-1.6,3.6c-0.3,0.6-0.6,1.1-0.9,1.6l-0.4,0.5c-0.1,0.2-0.3,0.8-0.4,1c-0.1,0.3-0.1,0.5,0,0.7c0,0.4,0.1,0.8,0.2,1
			c0.4,1,0.8,1.3,1.1,1.7c0.7,0.7,1.3,1.2,1.9,1.7c0.3,0.3,2.4,1.1,3.5,1.2c-0.9-0.1-2.6,0-2.9,0.2c-0.5,0.3-1.2,0.8-1.8,1.7
			c-0.3,0.5-0.4,1-0.5,1.7v1.1c0.1,0.8,0.5,1.6,0.9,2.2c0.4,0.5,0.8,0.9,1.1,1.2c1.3,1.2,2,1.8,2.5,2.8c0.2,0.5,0.4,1,0.6,1.6
			c0.1,0.3,0.1,0.6,0.1,0.9c0,0.4,0.1,0.9,0.1,1.1c0.1,1.2-0.1,2.6-0.4,4.1c-0.2,1.5-0.6,3.2-0.5,5.2c0,1,0.2,2,0.5,2.9
			c0.1,0.5,0.3,0.9,0.5,1.4l0.3,0.6l0.2,0.3l0.1,0.1l0.1,0.2c0.1,0.2,0.2,0.3,0.4,0.5s0.4,0.5,0.5,0.7c0.4,0.4,0.7,0.8,1.1,1.1
			c0.8,0.7,1.7,1.2,2.6,1.6c1.8,0.8,3.6,1.1,5.3,1.3c3.5,0.3,6.8-0.1,10.1-1c3.1-0.9,6-1.9,9-2.8c3-0.9,5.9-1.9,8.9-2.7
			c1.5-0.4,2.9-0.8,4.4-1c1.4-0.2,2.4-0.2,3.7,0.3c2.5,0.9,4.9,2.7,7,4.7c2.5,2.4,4.6,5.2,6.4,8.2c0,0,3.8,7.7,1,13.8
			c-2.4,5.3-6,6.2-6.9,6.3c1.3-0.2,8.9-1.4,10.5-8.4c1.4-6.2-1.8-12.7-1.8-12.7c-1.8-3.5-4-6.7-6.7-9.6c-2.3-2.4-4.9-4.5-8.2-5.9
			c-0.4-0.2-0.9-0.3-1.3-0.4s-1.1-0.2-1.4-0.3h-1.4c-0.5,0-0.9,0.1-1.3,0.1c-1.7,0.2-3.2,0.6-4.8,0.9c-3.1,0.7-6.1,1.6-9.1,2.5
			s-6,1.8-8.9,2.6c-2.7,0.7-5.7,1-8.4,0.7c-1.4-0.1-2.7-0.5-3.8-1s-1.9-1.1-2.4-2.1l-0.4-0.7c-0.1-0.3-0.2-0.5-0.3-0.8
			c-0.1-0.5-0.3-1.1-0.3-1.7c-0.1-1.2,0.2-2.5,0.5-4.1s0.5-3.3,0.5-5.2c0-0.5-0.1-0.8-0.1-1.2c-0.1-0.5-0.1-1-0.2-1.4
			c-0.2-0.9-0.5-1.9-1-2.8c-0.9-1.9-2.5-3.4-3.5-4.3c0,0-0.1,0-0.1-0.1c6.3-1.8,12.4-2.5,12.4-2.5s-4.3-1.4-7.8-3.5
			c-2.3-1.4-4.6-3-5.2-3.5c-0.3-0.2-0.6-0.5-0.8-0.7c0.2-0.4,0.5-0.8,0.7-1.2c0.7-1.4,1.3-2.7,1.8-4.1c0.1-0.4,0.3-0.7,0.4-1.1
			l0.2-0.6c0.1-0.2,0.1-0.4,0.2-0.8v-0.8c0-0.7-0.3-1.1-0.4-1.3c-0.3-0.5-0.4-0.6-0.6-0.7c-0.1-0.1-0.3-0.2-0.4-0.3
			c-0.4-0.3-0.8-0.5-1.1-0.8c-2.5-1.5-4.9-2.8-7-4.3c-1-0.8-2-1.6-2.5-2.3c-0.3-0.4-0.4-0.7-0.4-0.8s0.1-0.5,0.3-0.8
			c0.5-1,1.2-2.1,2-3.2s1.6-2.1,2.5-3.2c1.7-2.1,3.5-4.3,5.2-6.6c1.7-2.2,3.4-4.5,4.9-7.1c0.8-1.3,1.4-2.6,2-4.1
			c0.3-0.8,0.5-1.5,0.6-2.4v-2.4c-0.2-3-0.7-5.7-1.2-8.5c-1-5.5-2-10.9-2.2-16.4c-0.1-2.7,0-5.5,0.6-8c0.6-2.6,1.6-5.2,2.7-7.7
			c1.1-2.5,2.4-5,3.9-7.3c1.4-2.4,3.1-4.7,4.8-6.8C238.2,295.1,234.8,299.7,232.1,304.7"/>
		<g>
			<defs>
				<path id="SVGID_00000180368564074392767260000004216734050503581081_" d="M232.1,304.7c-1.4,2.5-2.5,5.1-3.3,7.8
					c-0.8,2.8-1.1,5.7-1.2,8.6s0.1,5.7,0.4,8.5c0.3,2.8,0.6,5.6,1,8.4s0.7,5.5,0.8,8.1c0,0.7,0,1.3-0.1,1.8c0,0.1-0.1,0.2-0.1,0.4
					c-1.8,0.4-4.6,0.4-7.9-2.2c0,0,2.2,4.2,7.1,4.6c-0.4,0.8-0.8,1.5-1.2,2.2c-1.4,2.2-3.1,4.4-4.9,6.5l-5.4,6.4
					c-0.9,1.1-1.8,2.2-2.7,3.3c-0.9,1.2-1.8,2.3-2.5,3.9c-0.2,0.4-0.4,0.8-0.5,1.3s-0.3,1.1-0.2,2c0.2,1.3,0.7,2.2,1.2,3
					c1.1,1.5,2.3,2.5,3.5,3.4c2.3,1.8,4.8,3.2,7,4.5l-0.2,0.6c-0.4,1.2-1,2.4-1.6,3.6c-0.3,0.6-0.6,1.1-0.9,1.6l-0.4,0.5
					c-0.1,0.2-0.3,0.8-0.4,1c-0.1,0.3-0.1,0.5,0,0.7c0,0.4,0.1,0.8,0.2,1c0.4,1,0.8,1.3,1.1,1.7c0.7,0.7,1.3,1.2,1.9,1.7
					c0.3,0.3,2.4,1.1,3.5,1.2c-0.9-0.1-2.6,0-2.9,0.2c-0.5,0.3-1.2,0.8-1.8,1.7c-0.3,0.5-0.4,1-0.5,1.7v1.1c0.1,0.8,0.5,1.6,0.9,2.2
					c0.4,0.5,0.8,0.9,1.1,1.2c1.3,1.2,2,1.8,2.5,2.8c0.2,0.5,0.4,1,0.6,1.6c0.1,0.3,0.1,0.6,0.1,0.9c0,0.4,0.1,0.9,0.1,1.1
					c0.1,1.2-0.1,2.6-0.4,4.1c-0.2,1.5-0.6,3.2-0.5,5.2c0,1,0.2,2,0.5,2.9c0.1,0.5,0.3,0.9,0.5,1.4l0.3,0.6l0.2,0.3l0.1,0.1l0.1,0.2
					c0.1,0.2,0.2,0.3,0.4,0.5s0.4,0.5,0.5,0.7c0.4,0.4,0.7,0.8,1.1,1.1c0.8,0.7,1.7,1.2,2.6,1.6c1.8,0.8,3.6,1.1,5.3,1.3
					c3.5,0.3,6.8-0.1,10.1-1c3.1-0.9,6-1.9,9-2.8c3-0.9,5.9-1.9,8.9-2.7c1.5-0.4,2.9-0.8,4.4-1c1.4-0.2,2.4-0.2,3.7,0.3
					c2.5,0.9,4.9,2.7,7,4.7c2.5,2.4,4.6,5.2,6.4,8.2c0,0,3.8,7.7,1,13.8c-2.4,5.3-6,6.2-6.9,6.3c1.3-0.2,8.9-1.4,10.5-8.4
					c1.4-6.2-1.8-12.7-1.8-12.7c-1.8-3.5-4-6.7-6.7-9.6c-2.3-2.4-4.9-4.5-8.2-5.9c-0.4-0.2-0.9-0.3-1.3-0.4s-1.1-0.2-1.4-0.3h-1.4
					c-0.5,0-0.9,0.1-1.3,0.1c-1.7,0.2-3.2,0.6-4.8,0.9c-3.1,0.7-6.1,1.6-9.1,2.5s-6,1.8-8.9,2.6c-2.7,0.7-5.7,1-8.4,0.7
					c-1.4-0.1-2.7-0.5-3.8-1s-1.9-1.1-2.4-2.1l-0.4-0.7c-0.1-0.3-0.2-0.5-0.3-0.8c-0.1-0.5-0.3-1.1-0.3-1.7
					c-0.1-1.2,0.2-2.5,0.5-4.1s0.5-3.3,0.5-5.2c0-0.5-0.1-0.8-0.1-1.2c-0.1-0.5-0.1-1-0.2-1.4c-0.2-0.9-0.5-1.9-1-2.8
					c-0.9-1.9-2.5-3.4-3.5-4.3c0,0-0.1,0-0.1-0.1c6.3-1.8,12.4-2.5,12.4-2.5s-4.3-1.4-7.8-3.5c-2.3-1.4-4.6-3-5.2-3.5
					c-0.3-0.2-0.6-0.5-0.8-0.7c0.2-0.4,0.5-0.8,0.7-1.2c0.7-1.4,1.3-2.7,1.8-4.1c0.1-0.4,0.3-0.7,0.4-1.1l0.2-0.6
					c0.1-0.2,0.1-0.4,0.2-0.8v-0.8c0-0.7-0.3-1.1-0.4-1.3c-0.3-0.5-0.4-0.6-0.6-0.7c-0.1-0.1-0.3-0.2-0.4-0.3
					c-0.4-0.3-0.8-0.5-1.1-0.8c-2.5-1.5-4.9-2.8-7-4.3c-1-0.8-2-1.6-2.5-2.3c-0.3-0.4-0.4-0.7-0.4-0.8s0.1-0.5,0.3-0.8
					c0.5-1,1.2-2.1,2-3.2s1.6-2.1,2.5-3.2c1.7-2.1,3.5-4.3,5.2-6.6c1.7-2.2,3.4-4.5,4.9-7.1c0.8-1.3,1.4-2.6,2-4.1
					c0.3-0.8,0.5-1.5,0.6-2.4v-2.4c-0.2-3-0.7-5.7-1.2-8.5c-1-5.5-2-10.9-2.2-16.4c-0.1-2.7,0-5.5,0.6-8c0.6-2.6,1.6-5.2,2.7-7.7
					c1.1-2.5,2.4-5,3.9-7.3c1.4-2.4,3.1-4.7,4.8-6.8C238.2,295.1,234.8,299.7,232.1,304.7"/>
			</defs>
			<clipPath id="SVGID_00000091731061254501662360000005356872889554265730_">
				<use xlink:href="#SVGID_00000180368564074392767260000004216734050503581081_"  style="overflow:visible;"/>
			</clipPath>
			<g style="clip-path:url(#SVGID_00000091731061254501662360000005356872889554265730_);">
				
					<linearGradient id="SVGID_00000100354532594966947850000014065475899113783996_" gradientUnits="userSpaceOnUse" x1="-1251.3275" y1="1706.5685" x2="-1250.1975" y2="1706.5685" gradientTransform="matrix(85.7259 159.3435 -159.3435 85.7259 379411.6562 53391.9492)">
					<stop  offset="0" style="stop-color:#B09C64"/>
					<stop  offset="0.58" style="stop-color:#E0CA91"/>
					<stop  offset="1" style="stop-color:#A8965D"/>
				</linearGradient>
				<polygon style="fill:url(#SVGID_00000100354532594966947850000014065475899113783996_);" points="140.2,329.3 274.3,257.2 
					363.5,423 229.4,495.1 				"/>
			</g>
		</g>
	</g>
	<g>
		
			<linearGradient id="SVGID_00000034811226802944568280000008041446363901731479_" gradientUnits="userSpaceOnUse" x1="135.68" y1="-941.2051" x2="320.85" y2="-941.2051" gradientTransform="matrix(1 0 0 -1 0 -520)">
			<stop  offset="0" style="stop-color:#B09C64"/>
			<stop  offset="0.58" style="stop-color:#E0CA91"/>
			<stop  offset="1" style="stop-color:#A8965D"/>
		</linearGradient>
		<path style="fill:url(#SVGID_00000034811226802944568280000008041446363901731479_);" d="M360.5,352.5
			c2.5,2.6,22.3,24.1,20.6,61.4c-1.5,34.4-28.7,79.5-91.7,63.7s-109.5-67.9-135.7-25.2c0.8-0.8,14.3-15.4,44-2.8
			c40.7,17.2,114.1,61.9,162.7,28.6c46.7-32,30.2-101.3-0.1-126L360.5,352.5L360.5,352.5L360.5,352.5z"/>
		<g>
			<defs>
				<path id="SVGID_00000139291598120177949840000002443010641034044295_" d="M360.5,352.5c2.5,2.6,22.3,24.1,20.6,61.4
					c-1.5,34.4-28.7,79.5-91.7,63.7s-109.5-67.9-135.7-25.2c0.8-0.8,14.3-15.4,44-2.8c40.7,17.2,114.1,61.9,162.7,28.6
					c46.7-32,30.2-101.3-0.1-126L360.5,352.5L360.5,352.5L360.5,352.5z"/>
			</defs>
			<clipPath id="SVGID_00000067925116465039389260000017170102287066567566_">
				<use xlink:href="#SVGID_00000139291598120177949840000002443010641034044295_"  style="overflow:visible;"/>
			</clipPath>
			<g style="clip-path:url(#SVGID_00000067925116465039389260000017170102287066567566_);">
				
					<linearGradient id="SVGID_00000085230883720191548350000014813683279294089362_" gradientUnits="userSpaceOnUse" x1="-1251.3275" y1="1706.5754" x2="-1250.1975" y2="1706.5754" gradientTransform="matrix(85.7259 159.3435 -159.3435 85.7259 379411.7188 53392.043)">
					<stop  offset="0" style="stop-color:#B09C64"/>
					<stop  offset="0.58" style="stop-color:#E0CA91"/>
					<stop  offset="1" style="stop-color:#A8965D"/>
				</linearGradient>
				<polygon style="fill:url(#SVGID_00000085230883720191548350000014813683279294089362_);" points="87.2,388 350.3,246.5 
					473.6,475.8 210.6,617.3 				"/>
			</g>
		</g>
	</g>
	<g>
		
			<linearGradient id="SVGID_00000078033484720707603700000017895691370598853779_" gradientUnits="userSpaceOnUse" x1="227.07" y1="-938.9169" x2="350.03" y2="-938.9169" gradientTransform="matrix(1 0 0 -1 0 -520)">
			<stop  offset="0" style="stop-color:#B09C64"/>
			<stop  offset="0.58" style="stop-color:#E0CA91"/>
			<stop  offset="1" style="stop-color:#A8965D"/>
		</linearGradient>
		<path style="fill:url(#SVGID_00000078033484720707603700000017895691370598853779_);" d="M381.1,413.9
			c-1.5,34.4-28.7,79.5-91.7,63.7s-109.5-67.9-135.7-25.2c0.6-0.8,13.6-15.8,30.8-12.2c22.3,4.6,64.3,30.7,105.4,41.8
			c22.7,6.1,74.9,9.1,90.3-39.9c16.9-53.9-16.5-86.4-19.8-89.6C363,355.1,382.8,376.6,381.1,413.9"/>
		<g>
			<defs>
				<path id="SVGID_00000113317160886698153150000009704219316279863738_" d="M381.1,413.9c-1.5,34.4-28.7,79.5-91.7,63.7
					s-109.5-67.9-135.7-25.2c0.6-0.8,13.6-15.8,30.8-12.2c22.3,4.6,64.3,30.7,105.4,41.8c22.7,6.1,74.9,9.1,90.3-39.9
					c16.9-53.9-16.5-86.4-19.8-89.6C363,355.1,382.8,376.6,381.1,413.9"/>
			</defs>
			<clipPath id="SVGID_00000124154077789481752250000009971669710886140586_">
				<use xlink:href="#SVGID_00000113317160886698153150000009704219316279863738_"  style="overflow:visible;"/>
			</clipPath>
			<g style="clip-path:url(#SVGID_00000124154077789481752250000009971669710886140586_);">
				
					<linearGradient id="SVGID_00000039823537777855490190000016173407398055847052_" gradientUnits="userSpaceOnUse" x1="-1243.0107" y1="1709.7979" x2="-1241.8807" y2="1709.7979" gradientTransform="matrix(64.6638 98.9674 -98.9674 64.6638 249843.5938 12841.5078)">
					<stop  offset="0" style="stop-color:#B09C64"/>
					<stop  offset="0.58" style="stop-color:#E0CA91"/>
					<stop  offset="1" style="stop-color:#A8965D"/>
				</linearGradient>
				<polygon style="fill:url(#SVGID_00000039823537777855490190000016173407398055847052_);" points="89.2,394.6 324.4,241 
					461.8,451.2 226.6,604.9 				"/>
			</g>
		</g>
	</g>
	<g>
		
			<linearGradient id="SVGID_00000036962013108729021990000006743211255753828002_" gradientUnits="userSpaceOnUse" x1="246.09" y1="-939.4542" x2="342.46" y2="-939.4542" gradientTransform="matrix(1 0 0 -1 0 -520)">
			<stop  offset="0" style="stop-color:#B09C64"/>
			<stop  offset="0.58" style="stop-color:#E0CA91"/>
			<stop  offset="1" style="stop-color:#A8965D"/>
		</linearGradient>
		<path style="fill:url(#SVGID_00000036962013108729021990000006743211255753828002_);" d="M320.2,364.5c0.6,0.8,21.3,26.5,19,59.1
			c-2,29.8-23.7,46.3-47.9,50.8c0,0,59.7,1.9,59.7-51.5C351,383.8,321.1,365.1,320.2,364.5L320.2,364.5L320.2,364.5z"/>
		<g>
			<defs>
				<path id="SVGID_00000082358495662807376460000015328682607999399065_" d="M320.2,364.5c0.6,0.8,21.3,26.5,19,59.1
					c-2,29.8-23.7,46.3-47.9,50.8c0,0,59.7,1.9,59.7-51.5C351,383.8,321.1,365.1,320.2,364.5L320.2,364.5L320.2,364.5z"/>
			</defs>
			<clipPath id="SVGID_00000090278815815931866650000017796088444690264733_">
				<use xlink:href="#SVGID_00000082358495662807376460000015328682607999399065_"  style="overflow:visible;"/>
			</clipPath>
			<g style="clip-path:url(#SVGID_00000090278815815931866650000017796088444690264733_);">
				
					<linearGradient id="SVGID_00000162331047472939832180000013167908478710826676_" gradientUnits="userSpaceOnUse" x1="-1251.3275" y1="1706.5247" x2="-1250.1975" y2="1706.5247" gradientTransform="matrix(85.7259 159.3435 -159.3435 85.7259 379440.0625 53376.8555)">
					<stop  offset="0" style="stop-color:#B09C64"/>
					<stop  offset="0.58" style="stop-color:#E0CA91"/>
					<stop  offset="1" style="stop-color:#A8965D"/>
				</linearGradient>
				<polygon style="fill:url(#SVGID_00000162331047472939832180000013167908478710826676_);" points="244.7,389.6 337.6,339.6 
					397.6,451.1 304.7,501.1 				"/>
			</g>
		</g>
	</g>
	<g>
		
			<linearGradient id="SVGID_00000011743735417797146530000017627975308098883225_" gradientUnits="userSpaceOnUse" x1="298.08" y1="-939.45" x2="334.6" y2="-939.45" gradientTransform="matrix(1 0 0 -1 0 -520)">
			<stop  offset="0" style="stop-color:#B09C64"/>
			<stop  offset="0.58" style="stop-color:#E0CA91"/>
			<stop  offset="1" style="stop-color:#A8965D"/>
		</linearGradient>
		<path style="fill:url(#SVGID_00000011743735417797146530000017627975308098883225_);" d="M320.2,364.5c0.6,0.8,21.3,26.5,19,59.1
			c-2,29.8-23.7,46.3-47.9,50.8c36.2-3.9,48.5-23,52-37.7C353.6,393.9,321.2,365.5,320.2,364.5L320.2,364.5z"/>
		<g>
			<defs>
				<path id="SVGID_00000178899815185039156700000000468499162742277042_" d="M320.2,364.5c0.6,0.8,21.3,26.5,19,59.1
					c-2,29.8-23.7,46.3-47.9,50.8c36.2-3.9,48.5-23,52-37.7C353.6,393.9,321.2,365.5,320.2,364.5L320.2,364.5z"/>
			</defs>
			<clipPath id="SVGID_00000175307960755233631510000002948469583932304525_">
				<use xlink:href="#SVGID_00000178899815185039156700000000468499162742277042_"  style="overflow:visible;"/>
			</clipPath>
			<g style="clip-path:url(#SVGID_00000175307960755233631510000002948469583932304525_);">
				
					<linearGradient id="SVGID_00000181778405596411715640000014655559621346849951_" gradientUnits="userSpaceOnUse" x1="-1229.0959" y1="1712.6171" x2="-1227.9659" y2="1712.6171" gradientTransform="matrix(41.2586 63.146 -63.146 41.2586 159152.1875 7331.9487)">
					<stop  offset="0" style="stop-color:#B09C64"/>
					<stop  offset="0.58" style="stop-color:#E0CA91"/>
					<stop  offset="1" style="stop-color:#A8965D"/>
				</linearGradient>
				<polygon style="fill:url(#SVGID_00000181778405596411715640000014655559621346849951_);" points="241,397.3 334.9,336 
					403.9,441.4 309.9,502.8 				"/>
			</g>
		</g>
	</g>
	<g>
		
			<linearGradient id="SVGID_00000139997496776446469440000007111081777431629964_" gradientUnits="userSpaceOnUse" x1="45.99" y1="-969.6148" x2="315.24" y2="-969.6148" gradientTransform="matrix(1 0 0 -1 0 -520)">
			<stop  offset="0" style="stop-color:#B09C64"/>
			<stop  offset="0.58" style="stop-color:#E0CA91"/>
			<stop  offset="1" style="stop-color:#A8965D"/>
		</linearGradient>
		<path style="fill:url(#SVGID_00000139997496776446469440000007111081777431629964_);" d="M169.6,432.9L169.6,432.9
			c-0.1,0,11-5.3,32.9,3.4c21.9,8.7,54.4,28.9,72.8,32.7c26.5,5.5,38.3-6.6,38.9-7.2l0,0c-0.9,0.4-21.2,8.9-41.2,2.1
			c-16-5.4-59.9-32-78.8-34.5c-3.3-0.5-6.2-0.6-8.7-0.6C174.4,428.8,170.1,432.4,169.6,432.9"/>
		<g>
			<defs>
				<path id="SVGID_00000127034705171138395680000015228545114872272554_" d="M169.6,432.9L169.6,432.9c-0.1,0,11-5.3,32.9,3.4
					c21.9,8.7,54.4,28.9,72.8,32.7c26.5,5.5,38.3-6.6,38.9-7.2l0,0c-0.9,0.4-21.2,8.9-41.2,2.1c-16-5.4-59.9-32-78.8-34.5
					c-3.3-0.5-6.2-0.6-8.7-0.6C174.4,428.8,170.1,432.4,169.6,432.9"/>
			</defs>
			<clipPath id="SVGID_00000097461336394079503650000010579966633382133920_">
				<use xlink:href="#SVGID_00000127034705171138395680000015228545114872272554_"  style="overflow:visible;"/>
			</clipPath>
			<g style="clip-path:url(#SVGID_00000097461336394079503650000010579966633382133920_);">
				
					<linearGradient id="SVGID_00000129899618236556079820000004843773609259372734_" gradientUnits="userSpaceOnUse" x1="-1251.3275" y1="1706.632" x2="-1250.1975" y2="1706.632" gradientTransform="matrix(85.7259 159.3435 -159.3435 85.7259 379382.9062 53407.7148)">
					<stop  offset="0" style="stop-color:#B09C64"/>
					<stop  offset="0.58" style="stop-color:#E0CA91"/>
					<stop  offset="1" style="stop-color:#A8965D"/>
				</linearGradient>
				<polygon style="fill:url(#SVGID_00000129899618236556079820000004843773609259372734_);" points="150,438.2 281.8,367.3 
					333.8,464 202.1,534.9 				"/>
			</g>
		</g>
	</g>
	<g>
		
			<linearGradient id="SVGID_00000080893583157912518150000018362635421990334890_" gradientUnits="userSpaceOnUse" x1="175.71" y1="-968.5175" x2="303.06" y2="-968.5175" gradientTransform="matrix(1 0 0 -1 0 -520)">
			<stop  offset="0" style="stop-color:#B09C64"/>
			<stop  offset="0.58" style="stop-color:#E0CA91"/>
			<stop  offset="1" style="stop-color:#A8965D"/>
		</linearGradient>
		<path style="fill:url(#SVGID_00000080893583157912518150000018362635421990334890_);" d="M169.6,432.9c0.8-0.5,10.7-6,27.7-0.8
			c17.8,5.4,53.9,25.1,66.1,30.5c11,4.9,34.1,10.1,50.8-0.8l0,0c-0.9,0.4-21.2,8.9-41.2,2.1c-16-5.4-59.9-32-78.8-34.5
			c-3.3-0.5-6.2-0.6-8.7-0.6C174.4,428.8,170.1,432.4,169.6,432.9"/>
		<g>
			<defs>
				<path id="SVGID_00000103250241027968276740000015940924934599486629_" d="M169.6,432.9c0.8-0.5,10.7-6,27.7-0.8
					c17.8,5.4,53.9,25.1,66.1,30.5c11,4.9,34.1,10.1,50.8-0.8l0,0c-0.9,0.4-21.2,8.9-41.2,2.1c-16-5.4-59.9-32-78.8-34.5
					c-3.3-0.5-6.2-0.6-8.7-0.6C174.4,428.8,170.1,432.4,169.6,432.9"/>
			</defs>
			<clipPath id="SVGID_00000145042063139178789490000011669218006404935842_">
				<use xlink:href="#SVGID_00000103250241027968276740000015940924934599486629_"  style="overflow:visible;"/>
			</clipPath>
			<g style="clip-path:url(#SVGID_00000145042063139178789490000011669218006404935842_);">
				
					<linearGradient id="SVGID_00000013871520349626899870000009956378064041261227_" gradientUnits="userSpaceOnUse" x1="-1235.8889" y1="1711.4396" x2="-1234.7589" y2="1711.4396" gradientTransform="matrix(50.0704 76.6324 -76.6324 50.0704 193246.1562 9421.9619)">
					<stop  offset="0" style="stop-color:#B09C64"/>
					<stop  offset="0.58" style="stop-color:#E0CA91"/>
					<stop  offset="1" style="stop-color:#A8965D"/>
				</linearGradient>
				<polygon style="fill:url(#SVGID_00000013871520349626899870000009956378064041261227_);" points="148.7,440.6 271,360.7 
					335.2,459 212.9,538.9 				"/>
			</g>
		</g>
	</g>
	<g>
		
			<linearGradient id="SVGID_00000149360455383411249420000010032458472993732276_" gradientUnits="userSpaceOnUse" x1="238.92" y1="-904.1761" x2="356.49" y2="-904.1761" gradientTransform="matrix(1 0 0 -1 0 -520)">
			<stop  offset="0" style="stop-color:#B09C64"/>
			<stop  offset="0.58" style="stop-color:#E0CA91"/>
			<stop  offset="1" style="stop-color:#A8965D"/>
		</linearGradient>
		<path style="fill:url(#SVGID_00000149360455383411249420000010032458472993732276_);" d="M248,292.5c-3.9,5.2-6.9,18.5,0.2,30.1
			c21.2,34.7,64.7,10.7,96.6,59c24,36.3,12,81.9-24.9,92.5c-2.7,0.8-5.5,1.4-8.4,1.7c0,0,60.7,4.3,64.3-65.2
			c0.6-11.4-2.1-25.3-6.4-34.3c-9-19-22.8-30.9-28.9-35c-14.9-9.8-34.4-15.5-60.8-21.7C251,312.9,248,292.5,248,292.5L248,292.5"/>
		<g>
			<defs>
				<path id="SVGID_00000121967653884226376300000001968140231149164686_" d="M248,292.5c-3.9,5.2-6.9,18.5,0.2,30.1
					c21.2,34.7,64.7,10.7,96.6,59c24,36.3,12,81.9-24.9,92.5c-2.7,0.8-5.5,1.4-8.4,1.7c0,0,60.7,4.3,64.3-65.2
					c0.6-11.4-2.1-25.3-6.4-34.3c-9-19-22.8-30.9-28.9-35c-14.9-9.8-34.4-15.5-60.8-21.7C251,312.9,248,292.5,248,292.5L248,292.5"
					/>
			</defs>
			<clipPath id="SVGID_00000059275789663430978810000003269700573063690640_">
				<use xlink:href="#SVGID_00000121967653884226376300000001968140231149164686_"  style="overflow:visible;"/>
			</clipPath>
			<g style="clip-path:url(#SVGID_00000059275789663430978810000003269700573063690640_);">
				
					<linearGradient id="SVGID_00000139989263164443692100000007952233008199017117_" gradientUnits="userSpaceOnUse" x1="-1251.3275" y1="1706.6116" x2="-1250.1975" y2="1706.6116" gradientTransform="matrix(85.7259 159.3435 -159.3435 85.7259 379458.5625 53367.1211)">
					<stop  offset="0" style="stop-color:#B09C64"/>
					<stop  offset="0.58" style="stop-color:#E0CA91"/>
					<stop  offset="1" style="stop-color:#A8965D"/>
				</linearGradient>
				<polygon style="fill:url(#SVGID_00000139989263164443692100000007952233008199017117_);" points="162.8,334.6 346,236.1 
					454.6,438 271.5,536.6 				"/>
			</g>
		</g>
	</g>
	<g>
		
			<linearGradient id="SVGID_00000141420332657505885780000017529387753276980400_" gradientUnits="userSpaceOnUse" x1="235.5" y1="-903.2" x2="355.92" y2="-903.2" gradientTransform="matrix(1 0 0 -1 0 -520)">
			<stop  offset="0" style="stop-color:#B09C64"/>
			<stop  offset="0.58" style="stop-color:#E0CA91"/>
			<stop  offset="1" style="stop-color:#A8965D"/>
		</linearGradient>
		<path style="fill:url(#SVGID_00000141420332657505885780000017529387753276980400_);" d="M248.2,322.5
			c21.2,34.7,64.7,10.7,96.6,59c24,36.3,12,82-24.9,92.5c58-15,54.4-82,28.1-109.6c-28.6-30-68.8-28.8-87.4-42.5
			c-18.2-13.4-12.9-28.8-12.6-29.5C244.1,297.7,241.1,311,248.2,322.5"/>
		<g>
			<defs>
				<path id="SVGID_00000013906484475201200920000003944459208928835980_" d="M248.2,322.5c21.2,34.7,64.7,10.7,96.6,59
					c24,36.3,12,82-24.9,92.5c58-15,54.4-82,28.1-109.6c-28.6-30-68.8-28.8-87.4-42.5c-18.2-13.4-12.9-28.8-12.6-29.5
					C244.1,297.7,241.1,311,248.2,322.5"/>
			</defs>
			<clipPath id="SVGID_00000114758901326275991450000011352974772487190172_">
				<use xlink:href="#SVGID_00000013906484475201200920000003944459208928835980_"  style="overflow:visible;"/>
			</clipPath>
			<g style="clip-path:url(#SVGID_00000114758901326275991450000011352974772487190172_);">
				
					<linearGradient id="SVGID_00000058556481296318207750000000274220605547215543_" gradientUnits="userSpaceOnUse" x1="-1252.911" y1="1707.6564" x2="-1251.781" y2="1707.6564" gradientTransform="matrix(108.1323 165.4955 -165.4955 108.1323 418329.1562 22974.7812)">
					<stop  offset="0" style="stop-color:#B09C64"/>
					<stop  offset="0.58" style="stop-color:#E0CA91"/>
					<stop  offset="1" style="stop-color:#A8965D"/>
				</linearGradient>
				<polygon style="fill:url(#SVGID_00000058556481296318207750000000274220605547215543_);" points="157.9,346.8 337,229.8 
					461,419.8 282,536.7 				"/>
			</g>
		</g>
	</g>
	<g>
		
			<linearGradient id="SVGID_00000119095042099215175690000011079416781186935956_" gradientUnits="userSpaceOnUse" x1="13.14" y1="-992.1501" x2="279.31" y2="-992.1501" gradientTransform="matrix(1 0 0 -1 0 -520)">
			<stop  offset="0" style="stop-color:#B09C64"/>
			<stop  offset="0.58" style="stop-color:#E0CA91"/>
			<stop  offset="1" style="stop-color:#A8965D"/>
		</linearGradient>
		<path style="fill:url(#SVGID_00000119095042099215175690000011079416781186935956_);" d="M158,460.4L158,460.4
			c17.6-3.5,34.8,9,68,21.9s56.3,7.1,56.3,7.1c-26.4-2.1-60.3-20.9-80.4-29.4c-11.4-4.8-20-6.4-26.5-6.4
			C162.5,453.6,158.2,460,158,460.4"/>
		<g>
			<defs>
				<path id="SVGID_00000150824911581288746730000015572808418298062498_" d="M158,460.4L158,460.4c17.6-3.5,34.8,9,68,21.9
					s56.3,7.1,56.3,7.1c-26.4-2.1-60.3-20.9-80.4-29.4c-11.4-4.8-20-6.4-26.5-6.4C162.5,453.6,158.2,460,158,460.4"/>
			</defs>
			<clipPath id="SVGID_00000044870011608934031380000014577174243770020537_">
				<use xlink:href="#SVGID_00000150824911581288746730000015572808418298062498_"  style="overflow:visible;"/>
			</clipPath>
			<g style="clip-path:url(#SVGID_00000044870011608934031380000014577174243770020537_);">
				
					<linearGradient id="SVGID_00000077303514844373306990000017627597058702775464_" gradientUnits="userSpaceOnUse" x1="-1251.3275" y1="1706.6409" x2="-1250.1975" y2="1706.6409" gradientTransform="matrix(85.7259 159.3435 -159.3435 85.7259 379357.625 53421.1523)">
					<stop  offset="0" style="stop-color:#B09C64"/>
					<stop  offset="0.58" style="stop-color:#E0CA91"/>
					<stop  offset="1" style="stop-color:#A8965D"/>
				</linearGradient>
				<polygon style="fill:url(#SVGID_00000077303514844373306990000017627597058702775464_);" points="140.6,463 254.3,401.8 
					299.6,485.8 185.8,547 				"/>
			</g>
		</g>
	</g>
	<g>
		
			<linearGradient id="SVGID_00000166674191758331345110000005989549735237708709_" gradientUnits="userSpaceOnUse" x1="150.51" y1="-991.6415" x2="278.71" y2="-991.6415" gradientTransform="matrix(1 0 0 -1 0 -520)">
			<stop  offset="0" style="stop-color:#B09C64"/>
			<stop  offset="0.58" style="stop-color:#E0CA91"/>
			<stop  offset="1" style="stop-color:#A8965D"/>
		</linearGradient>
		<path style="fill:url(#SVGID_00000166674191758331345110000005989549735237708709_);" d="M158,460.4c0.4-0.3,11.4-9.1,34.1,1
			c24.1,10.8,61.4,30.9,90.2,28c-26.4-2.1-60.3-20.9-80.4-29.4c-11.4-4.8-20-6.4-26.5-6.4C162.5,453.6,158.2,460,158,460.4"/>
		<g>
			<defs>
				<path id="SVGID_00000181775686245229148000000012777912281205344140_" d="M158,460.4c0.4-0.3,11.4-9.1,34.1,1
					c24.1,10.8,61.4,30.9,90.2,28c-26.4-2.1-60.3-20.9-80.4-29.4c-11.4-4.8-20-6.4-26.5-6.4C162.5,453.6,158.2,460,158,460.4"/>
			</defs>
			<clipPath id="SVGID_00000166665309568874735470000011484417265037658007_">
				<use xlink:href="#SVGID_00000181775686245229148000000012777912281205344140_"  style="overflow:visible;"/>
			</clipPath>
			<g style="clip-path:url(#SVGID_00000166665309568874735470000011484417265037658007_);">
				
					<linearGradient id="SVGID_00000159467049795454842860000004296132944794315962_" gradientUnits="userSpaceOnUse" x1="-1236.5106" y1="1711.3007" x2="-1235.3806" y2="1711.3007" gradientTransform="matrix(51.0824 78.1811 -78.1811 51.0824 197143.7812 9677.8643)">
					<stop  offset="0" style="stop-color:#B09C64"/>
					<stop  offset="0.58" style="stop-color:#E0CA91"/>
					<stop  offset="1" style="stop-color:#A8965D"/>
				</linearGradient>
				<polygon style="fill:url(#SVGID_00000159467049795454842860000004296132944794315962_);" points="139.2,463.5 245.1,394.3 
					301,480 195.2,549.1 				"/>
			</g>
		</g>
	</g>
	<g>
		
			<linearGradient id="SVGID_00000086654734164521693120000003079545389169861018_" gradientUnits="userSpaceOnUse" x1="1023.7526" y1="-207.3636" x2="1158.5226" y2="-207.3636" gradientTransform="matrix(0.9064 0.4225 0.4225 -0.9064 -587.0192 -355.2796)">
			<stop  offset="0" style="stop-color:#B09C64"/>
			<stop  offset="0.58" style="stop-color:#E0CA91"/>
			<stop  offset="1" style="stop-color:#A8965D"/>
		</linearGradient>
		<path style="fill:url(#SVGID_00000086654734164521693120000003079545389169861018_);" d="M252.5,285.1c0,0,6,25.4,47,18.7
			c54.6-8.9,73.6,16.3,75.7,19.4c0.1,0.1,0.1,0.2,0.2,0.3c-21-47-55.1-62-85.8-60.7c-2.8,0.1-5.4,0.3-7.7,0.7
			C254.4,267.4,252.5,285.1,252.5,285.1"/>
		<g>
			<defs>
				<path id="SVGID_00000059988423990314916600000015973759484480903839_" d="M252.5,285.1c0,0,6,25.4,47,18.7
					c54.6-8.9,73.6,16.3,75.7,19.4c0.1,0.1,0.1,0.2,0.2,0.3c-21-47-55.1-62-85.8-60.7c-2.8,0.1-5.4,0.3-7.7,0.7
					C254.4,267.4,252.5,285.1,252.5,285.1"/>
			</defs>
			<clipPath id="SVGID_00000181078894638469592510000014877180775189669256_">
				<use xlink:href="#SVGID_00000059988423990314916600000015973759484480903839_"  style="overflow:visible;"/>
			</clipPath>
			<g style="clip-path:url(#SVGID_00000181078894638469592510000014877180775189669256_);">
				
					<linearGradient id="SVGID_00000058576474718008369620000002826696754061834654_" gradientUnits="userSpaceOnUse" x1="-1247.7444" y1="1716.6991" x2="-1246.6144" y2="1716.6991" gradientTransform="matrix(103.3744 70.9145 -70.9145 103.3744 250973.3594 -88727.0312)">
					<stop  offset="0" style="stop-color:#B09C64"/>
					<stop  offset="0.58" style="stop-color:#E0CA91"/>
					<stop  offset="1" style="stop-color:#A8965D"/>
				</linearGradient>
				<polygon style="fill:url(#SVGID_00000058576474718008369620000002826696754061834654_);" points="219.8,312.1 294.5,203.2 
					405.7,279.4 331,388.4 				"/>
			</g>
		</g>
	</g>
	<g>
		
			<linearGradient id="SVGID_00000109016313010918804040000017879019316611553468_" gradientUnits="userSpaceOnUse" x1="1013.7226" y1="-215.0504" x2="1158.1826" y2="-215.0504" gradientTransform="matrix(0.9064 0.4225 0.4225 -0.9064 -587.0192 -355.2796)">
			<stop  offset="0" style="stop-color:#B09C64"/>
			<stop  offset="0.58" style="stop-color:#E0CA91"/>
			<stop  offset="1" style="stop-color:#A8965D"/>
		</linearGradient>
		<path style="fill:url(#SVGID_00000109016313010918804040000017879019316611553468_);" d="M299.5,303.8
			c54.6-8.9,73.6,16.3,75.7,19.4c-23.4-38.9-63.9-37.2-93.9-32.9c-20.4,2.9-28.9-5.2-28.9-5.2S258.5,310.5,299.5,303.8"/>
		<g>
			<defs>
				<path id="SVGID_00000044140704545893887800000014189687738371495597_" d="M299.5,303.8c54.6-8.9,73.6,16.3,75.7,19.4
					c-23.4-38.9-63.9-37.2-93.9-32.9c-20.4,2.9-28.9-5.2-28.9-5.2S258.5,310.5,299.5,303.8"/>
			</defs>
			<clipPath id="SVGID_00000060731699964091001880000011092293961052904838_">
				<use xlink:href="#SVGID_00000044140704545893887800000014189687738371495597_"  style="overflow:visible;"/>
			</clipPath>
			<g style="clip-path:url(#SVGID_00000060731699964091001880000011092293961052904838_);">
				
					<linearGradient id="SVGID_00000045618542138122723420000014705186092742925708_" gradientUnits="userSpaceOnUse" x1="-1240.1266" y1="1710.538" x2="-1238.9966" y2="1710.538" gradientTransform="matrix(61.5978 83.6715 -83.6715 61.5978 219786.4375 -1352.0612)">
					<stop  offset="0" style="stop-color:#B09C64"/>
					<stop  offset="0.58" style="stop-color:#E0CA91"/>
					<stop  offset="1" style="stop-color:#A8965D"/>
				</linearGradient>
				<polygon style="fill:url(#SVGID_00000045618542138122723420000014705186092742925708_);" points="231.5,300.6 334.9,224.4 
					396.2,307.8 292.9,383.9 				"/>
			</g>
		</g>
	</g>
	<g>
		<g>
			
				<linearGradient id="SVGID_00000099655226707170626640000011617910012753026742_" gradientUnits="userSpaceOnUse" x1="104.8" y1="-854.9288" x2="414.7" y2="-854.9288" gradientTransform="matrix(1 0 0 -1 0 -520)">
				<stop  offset="0" style="stop-color:#B09C64"/>
				<stop  offset="0.58" style="stop-color:#E0CA91"/>
				<stop  offset="1" style="stop-color:#A8965D"/>
			</linearGradient>
			<path style="fill:url(#SVGID_00000099655226707170626640000011617910012753026742_);" d="M414,304.3c-19.8-21.8-45.3-39-75.2-49
				c-93-31-193.9,19.4-224.9,112.4c-6.1,18.2-9,36.7-9.1,55c0.5,0.3,1,0.7,1.5,1c0-18.4,2.9-37.1,9.1-55.5
				c30.7-92.2,130.8-142.2,223-111.5c30.5,10.2,56.4,28,76.3,50.5C414.4,306.3,414.2,305.3,414,304.3L414,304.3z"/>
			
				<linearGradient id="SVGID_00000111906731919250816860000015374000416406347673_" gradientUnits="userSpaceOnUse" x1="160" y1="-1087.5238" x2="421.9" y2="-1087.5238" gradientTransform="matrix(1 0 0 -1 0 -520)">
				<stop  offset="0" style="stop-color:#B09C64"/>
				<stop  offset="0.58" style="stop-color:#E0CA91"/>
				<stop  offset="1" style="stop-color:#A8965D"/>
			</linearGradient>
			<path style="fill:url(#SVGID_00000111906731919250816860000015374000416406347673_);" d="M420.8,533.3
				c-44.8,56.5-121.8,82-194,57.9c-25.9-8.6-48.5-22.7-66.8-40.6c0.1,0.7,0.1,1.5,0.1,2.2c18.3,17.5,40.7,31.3,66.2,39.8
				c72.8,24.3,150.4-1.4,195.6-58.3C421.6,534,421.2,533.6,420.8,533.3L420.8,533.3L420.8,533.3z"/>
		</g>
		<g>
			
				<linearGradient id="SVGID_00000054262081062491670720000012736199234788178612_" gradientUnits="userSpaceOnUse" x1="71.41" y1="-1061.1711" x2="159.04" y2="-1061.1711" gradientTransform="matrix(1 0 0 -1 0 -520)">
				<stop  offset="0" style="stop-color:#B09C64"/>
				<stop  offset="0.58" style="stop-color:#E0CA91"/>
				<stop  offset="1" style="stop-color:#A8965D"/>
			</linearGradient>
			<path style="fill:url(#SVGID_00000054262081062491670720000012736199234788178612_);" d="M153.8,579.6c-0.6,1.1-1.2,2.1-1.9,3.2
				c-3.9,5.9-9.6,10.8-16.6,11.9c-8.2,1.4-16.9-3.4-20.5-10.9c1.1,1.8,2.8,3.2,4.8,3.8c3.2,0.9,7.1-0.8,8.4-3.9
				c1.1-2.6,0.4-5.5-0.9-8c-3.9-7.6-12.4-11.4-20.5-14.2s-16.8-5.4-22.3-11.9c-4.3-5-6.1-12-4.7-18.5c0.8-4.1,2.9-7.9,5.8-10.8
				c-3,1.5-6.2,2.6-9.6,3.2c-1.6,0.3-3.6,0.3-4.6-1c4.3-0.6,7.9-4,10.4-7.7c4.5-6.5,7.1-14.5,7.3-22.5c0.1,2.3,1.3,26.9,28.8,53.2
				c-12.1-17.2-19.3-38.1-25.7-58.1l0,0c2.2,6.2,5.8,12.9,12,15.5c7.1,3,14.8,3.9,22.1,6.2c7.3,2.3,14.6,6.4,17.8,13.3
				c-4.6-2.8-10-4.1-15.3-3.8c-5.5,0.3-10.5,3.2-14.7,6.6l0,0c8.8-3.6,19.3-2.6,27.5,2.3c8.5,5,14.5,13.8,16.6,23.5
				C160.3,560.6,158.5,570.9,153.8,579.6L153.8,579.6L153.8,579.6z"/>
			
				<linearGradient id="SVGID_00000137122019958034189850000014024246174871586484_" gradientUnits="userSpaceOnUse" x1="416.835" y1="-830.1" x2="531.9" y2="-830.1" gradientTransform="matrix(1 0 0 -1 0 -520)">
				<stop  offset="0" style="stop-color:#B09C64"/>
				<stop  offset="0.58" style="stop-color:#E0CA91"/>
				<stop  offset="1" style="stop-color:#A8965D"/>
			</linearGradient>
			<path style="fill:url(#SVGID_00000137122019958034189850000014024246174871586484_);" d="M502,381.2l0.2,0.4
				c-7,4.2-11.9,13-15.8,20.1l0,0c0-22.1-8-47-20.5-65.1l-0.1,0.1c-0.1-0.2-0.2-0.4-0.3-0.6l-0.2,0.1c8.2,21.5,14.5,43.5,16.8,66.4
				c-0.1-0.7-0.3-1.5-0.5-2.2c-2.6-11.1-7.6-21.2-12.9-31.4c-2.2-4.3-4.7-8.6-8.2-12s-8.1-5.9-12.9-6.1c-4.7-0.2-9.7,2.2-11.9,6.3
				l-0.5-0.2c-0.3-5.1,1.2-10.4,4.2-14.6s7.4-7.3,12.4-8.7v-0.1c-12-1.9-24.3-7.1-30.6-17.5c-5.3-8.8-5.4-20-2.3-29.8
				c1-3,2.2-5.9,3.6-8.7c3.2-6.4,7.5-12.2,11.9-17.8c6.4-8.1,13.3-15.8,18.6-24.6c3.2-5.3,5.8-11.9,3.3-17.4l0.5-0.2
				c14.1,9.6,22.5,27.1,20.9,44.1c-0.6,6.9-2.7,13.6-4.7,20.3s-3.7,13.5-3.5,20.5c0.1,6.8,2.3,13.8,7,18.5
				c-2.1-14.8,3.4-30.5,14.3-40.7c-2.3,4.9-2.2,10.9-0.6,16.1c1.9,6.3,5.6,11.9,9.2,17.4c3.6,5.6,7,11.4,8.2,17.9
				c1,5.5,0.1,11.6-3.2,15.9c4.8-1.5,10.1-1.5,14.9,0.3c5.5,2,10.1,6.2,12.6,11.4c-10-2.9-21.2-1.2-29.9,4.6
				c-8.4,5.7-13.3,19.1-14.5,29.2c1-2.8,2.6-6.7,5.5-10.5C495.1,380.2,499.1,380.6,502,381.2L502,381.2L502,381.2z"/>
			
				<linearGradient id="SVGID_00000006676126871966019750000003058285054511952041_" gradientUnits="userSpaceOnUse" x1="508.86" y1="-834.4217" x2="518.84" y2="-834.4217" gradientTransform="matrix(1 0 0 -1 0 -520)">
				<stop  offset="0" style="stop-color:#B09C64"/>
				<stop  offset="0.58" style="stop-color:#E0CA91"/>
				<stop  offset="1" style="stop-color:#A8965D"/>
			</linearGradient>
			<path style="fill:url(#SVGID_00000006676126871966019750000003058285054511952041_);" d="M515.3,309.7c2.6,0.8,4.1,3.6,3.3,6.2
				s-3.6,4.1-6.2,3.3s-4.1-3.6-3.3-6.3S512.7,308.8,515.3,309.7L515.3,309.7z"/>
			
				<linearGradient id="SVGID_00000089555154506011430230000006244263487848851852_" gradientUnits="userSpaceOnUse" x1="510.03" y1="-821.15" x2="513.0319" y2="-821.15" gradientTransform="matrix(1 0 0 -1 0 -520)">
				<stop  offset="0" style="stop-color:#B09C64"/>
				<stop  offset="0.58" style="stop-color:#E0CA91"/>
				<stop  offset="1" style="stop-color:#A8965D"/>
			</linearGradient>
			<path style="fill:url(#SVGID_00000089555154506011430230000006244263487848851852_);" d="M512,299.7c0.8,0.2,1.2,1.1,1,1.9
				s-1.1,1.2-1.9,1s-1.2-1.1-1-1.9S511.2,299.5,512,299.7L512,299.7z"/>
			
				<linearGradient id="SVGID_00000059278371053827571000000007274210274069175946_" gradientUnits="userSpaceOnUse" x1="502.32" y1="-824.95" x2="507.28" y2="-824.95" gradientTransform="matrix(1 0 0 -1 0 -520)">
				<stop  offset="0" style="stop-color:#B09C64"/>
				<stop  offset="0.58" style="stop-color:#E0CA91"/>
				<stop  offset="1" style="stop-color:#A8965D"/>
			</linearGradient>
			<path style="fill:url(#SVGID_00000059278371053827571000000007274210274069175946_);" d="M505.5,302.6c1.3,0.4,2,1.8,1.6,3.1
				s-1.8,2-3.1,1.6s-2-1.8-1.6-3.1S504.2,302.2,505.5,302.6L505.5,302.6z"/>
			
				<linearGradient id="SVGID_00000151516669948805628780000009545389581570576810_" gradientUnits="userSpaceOnUse" x1="409.75" y1="-862.0315" x2="418.8" y2="-862.0315" gradientTransform="matrix(1 0 0 -1 0 -520)">
				<stop  offset="0" style="stop-color:#B09C64"/>
				<stop  offset="0.58" style="stop-color:#E0CA91"/>
				<stop  offset="1" style="stop-color:#A8965D"/>
			</linearGradient>
			<path style="fill:url(#SVGID_00000151516669948805628780000009545389581570576810_);" d="M415.6,337.7c2.4,0.7,3.7,3.3,3,5.7
				s-3.3,3.7-5.7,3s-3.7-3.3-3-5.7C410.7,338.3,413.2,336.9,415.6,337.7L415.6,337.7z"/>
			
				<linearGradient id="SVGID_00000152222337612242154340000018403561172496390532_" gradientUnits="userSpaceOnUse" x1="422.88" y1="-866.6" x2="430.6" y2="-866.6" gradientTransform="matrix(1 0 0 -1 0 -520)">
				<stop  offset="0" style="stop-color:#B09C64"/>
				<stop  offset="0.58" style="stop-color:#E0CA91"/>
				<stop  offset="1" style="stop-color:#A8965D"/>
			</linearGradient>
			<circle style="fill:url(#SVGID_00000152222337612242154340000018403561172496390532_);" cx="426.7" cy="346.6" r="3.9"/>
			
				<linearGradient id="SVGID_00000147207806733441979280000017888512115496512668_" gradientUnits="userSpaceOnUse" x1="424.81" y1="-854.85" x2="430.55" y2="-854.85" gradientTransform="matrix(1 0 0 -1 0 -520)">
				<stop  offset="0" style="stop-color:#B09C64"/>
				<stop  offset="0.58" style="stop-color:#E0CA91"/>
				<stop  offset="1" style="stop-color:#A8965D"/>
			</linearGradient>
			<path style="fill:url(#SVGID_00000147207806733441979280000017888512115496512668_);" d="M428.5,332.1c1.5,0.5,2.4,2.1,1.9,3.6
				s-2.1,2.4-3.6,1.9s-2.4-2.1-1.9-3.6S427,331.6,428.5,332.1L428.5,332.1z"/>
			
				<linearGradient id="SVGID_00000049901294934463869110000006625205673301356941_" gradientUnits="userSpaceOnUse" x1="490.7" y1="-922.4396" x2="551.6" y2="-922.4396" gradientTransform="matrix(1 0 0 -1 0 -520)">
				<stop  offset="0" style="stop-color:#B09C64"/>
				<stop  offset="0.58" style="stop-color:#E0CA91"/>
				<stop  offset="1" style="stop-color:#A8965D"/>
			</linearGradient>
			<path style="fill:url(#SVGID_00000049901294934463869110000006625205673301356941_);" d="M518,390.4
				c-9.2,4.6-16.8,12.2-21.6,21.3c-3.5,6.6-5.4,14-5.7,21.5c0-7.4,0.1-14.8,0.1-22.2c0-4.2,0.2-8.8,2.9-12.1
				c2.7-3.3,7.3-4.5,10.5-7.3c4.1-3.8,5.2-10,8.8-14.3c5.5-6.6,15.9-7.1,23.4-3s12.3,11.9,15.2,19.9l-0.2,0.2c-2-2.1-4.9-3.2-7.8-3
				c-3.1,0.3-6,2.1-7.5,4.9c-1.7,3-1.6,6.6-1.8,10.1c-0.2,3.4-0.9,7.2-3.6,9.4c-3.7,3-9.1,1.8-13.8,1.6c-7.7-0.2-15.5,3.3-20.4,9.3
				c-0.2,0.2-0.4,0.5-0.6,0.8c3.5-14,11.5-26.9,22.5-36.2L518,390.4L518,390.4L518,390.4z"/>
			
				<linearGradient id="SVGID_00000162330923142218542640000016261638957686086810_" gradientUnits="userSpaceOnUse" x1="434.41" y1="-943.3095" x2="480.96" y2="-943.3095" gradientTransform="matrix(1 0 0 -1 0 -520)">
				<stop  offset="0" style="stop-color:#B09C64"/>
				<stop  offset="0.58" style="stop-color:#E0CA91"/>
				<stop  offset="1" style="stop-color:#A8965D"/>
			</linearGradient>
			<path style="fill:url(#SVGID_00000162330923142218542640000016261638957686086810_);" d="M480.7,438.3c-0.7,4.9-2.4,9.5-4.4,14
				c1-9.1-3.7-18.8-11.8-23.3c-3.4-1.8-7.1-2.8-10.5-4.6c-3.4-1.7-6.6-4.5-7.5-8.2c-0.7-2.9,0.1-6.1-1.2-8.7c-1-1.9-3.1-3-5.1-3.5
				c-1.9-0.4-3.8-0.3-5.7-0.2c3.5-6.2,10.9-10.1,18-9.4s13.7,5.9,15.9,12.7c0.9,2.8,1.2,5.7,2.7,8.2c1.4,2.4,3.8,4.1,5.6,6.2
				C480.5,426,481.5,432.4,480.7,438.3L480.7,438.3z"/>
			
				<linearGradient id="SVGID_00000036941720242245171550000006069775128141604031_" gradientUnits="userSpaceOnUse" x1="425.1" y1="-1013.75" x2="474.91" y2="-1013.75" gradientTransform="matrix(1 0 0 -1 0 -520)">
				<stop  offset="0" style="stop-color:#B09C64"/>
				<stop  offset="0.58" style="stop-color:#E0CA91"/>
				<stop  offset="1" style="stop-color:#A8965D"/>
			</linearGradient>
			<path style="fill:url(#SVGID_00000036941720242245171550000006069775128141604031_);" d="M425.1,523.6c2.8-4.3,8.4-6.5,13.3-5.3
				c5,1.2,8.9,5.8,9.4,10.8l0,0c1.7-4.3,0.2-9.3-2.2-13.3c-2.6-4.3-6.2-7.8-8.8-12.1c-2.5-4.1-4-9.4-2.1-13.8c2.9,2.9,7,4.4,10.9,6
				c4.3,1.7,8.9,3.8,11.1,7.9h0.2c0.8-6.1-4-11.4-9-15c-4.9-3.6-10.7-6.9-13.1-12.5c-2.5-5.6-1-12.1,1.3-17.7
				c2.4-5.6,5.7-10.9,7.1-16.8s0.4-13-4.5-16.7l0.3-1c18.8,6.2,33.3,24,35.4,43.7c1.3,11.6-1.4,23.3-5.4,34.3
				c-5.3,14.7-13,28.5-22.6,40.9l0,0c-5.4,7.8-12,14.7-19.5,20.4c-0.8-3.7,0.2-7.6,1.7-11c1.5-3.6,3.6-7,4.9-10.6
				c1.4-3.6,2-7.8,0.7-11.4c-1.3-3.7-5.1-6.6-9-6L425.1,523.6L425.1,523.6L425.1,523.6z"/>
			
				<linearGradient id="SVGID_00000082330246879080158340000014393125079056718002_" gradientUnits="userSpaceOnUse" x1="459.3" y1="-1001.75" x2="529.5" y2="-1001.75" gradientTransform="matrix(1 0 0 -1 0 -520)">
				<stop  offset="0" style="stop-color:#B09C64"/>
				<stop  offset="0.58" style="stop-color:#E0CA91"/>
				<stop  offset="1" style="stop-color:#A8965D"/>
			</linearGradient>
			<path style="fill:url(#SVGID_00000082330246879080158340000014393125079056718002_);" d="M501.5,523.3c-0.3,2-1.4,4.1-3.3,4.7
				l-0.1-0.4c-0.7-4.3-5.2-6.9-9.5-7.5c-6.3-0.8-12.6,1.8-17.5,5.7c-4.3,3.4-8.6,7.2-11.8,11.7l0,0c17.9-26.5,28.6-57.8,30.6-89.7
				c2.8,7.7,4.3,16,4.3,24.2h0.4c0.1-10.1,3.4-20.2,9.5-28.4c6.2-8.4,15.3-14.7,25.3-17.6l0.1,0.1c-6.8,7.7-8.2,18.5-9.7,28.7
				c-1.5,10.3-3.9,21.4-11.9,28c-6.3,5.2-15.4,7-19.6,14l1,0.2c5-4.1,12.1-5.3,18.2-3.1v0.1c-7.4,3.5-14.1,8.5-19.5,14.7l0.3,0.2
				c3.8-0.3,7.6,1.1,10.2,3.9S502.1,519.6,501.5,523.3L501.5,523.3L501.5,523.3z"/>
			
				<linearGradient id="SVGID_00000098217699940650480600000001238000671825339537_" gradientUnits="userSpaceOnUse" x1="171.68" y1="-1106.7" x2="182.46" y2="-1106.7" gradientTransform="matrix(1 0 0 -1 0 -520)">
				<stop  offset="0" style="stop-color:#B09C64"/>
				<stop  offset="0.58" style="stop-color:#E0CA91"/>
				<stop  offset="1" style="stop-color:#A8965D"/>
			</linearGradient>
			<path style="fill:url(#SVGID_00000098217699940650480600000001238000671825339537_);" d="M178.8,581.6c2.8,0.9,4.4,4,3.4,6.8
				s-4,4.3-6.8,3.4s-4.3-4-3.4-6.8S175.9,580.7,178.8,581.6L178.8,581.6z"/>
			
				<linearGradient id="SVGID_00000152261164253275153300000010355019778663073681_" gradientUnits="userSpaceOnUse" x1="170.43" y1="-1089.369" x2="175.85" y2="-1089.369" gradientTransform="matrix(1 0 0 -1 0 -520)">
				<stop  offset="0" style="stop-color:#B09C64"/>
				<stop  offset="0.58" style="stop-color:#E0CA91"/>
				<stop  offset="1" style="stop-color:#A8965D"/>
			</linearGradient>
			<path style="fill:url(#SVGID_00000152261164253275153300000010355019778663073681_);" d="M174,566.8c1.4,0.5,2.2,2,1.7,3.4
				s-2,2.2-3.4,1.7s-2.2-2-1.7-3.4S172.6,566.4,174,566.8L174,566.8z"/>
			
				<linearGradient id="SVGID_00000154420291712731242730000013110895735004695200_" gradientUnits="userSpaceOnUse" x1="161" y1="-1098.0085" x2="169.79" y2="-1098.0085" gradientTransform="matrix(1 0 0 -1 0 -520)">
				<stop  offset="0" style="stop-color:#B09C64"/>
				<stop  offset="0.58" style="stop-color:#E0CA91"/>
				<stop  offset="1" style="stop-color:#A8965D"/>
			</linearGradient>
			<path style="fill:url(#SVGID_00000154420291712731242730000013110895735004695200_);" d="M166.8,573.8c2.3,0.8,3.5,3.3,2.8,5.6
				s-3.2,3.5-5.5,2.8s-3.6-3.3-2.8-5.5S164.5,573.1,166.8,573.8L166.8,573.8L166.8,573.8z"/>
			
				<linearGradient id="SVGID_00000182515543046453839950000014890273995964529822_" gradientUnits="userSpaceOnUse" x1="64.7" y1="-1054.6" x2="70.81" y2="-1054.6" gradientTransform="matrix(1 0 0 -1 0 -520)">
				<stop  offset="0" style="stop-color:#B09C64"/>
				<stop  offset="0.58" style="stop-color:#E0CA91"/>
				<stop  offset="1" style="stop-color:#A8965D"/>
			</linearGradient>
			<circle style="fill:url(#SVGID_00000182515543046453839950000014890273995964529822_);" cx="67.8" cy="534.6" r="3"/>
			
				<linearGradient id="SVGID_00000114765227996740438050000011010286180269997737_" gradientUnits="userSpaceOnUse" x1="63" y1="-1043.2191" x2="67.43" y2="-1043.2191" gradientTransform="matrix(1 0 0 -1 0 -520)">
				<stop  offset="0" style="stop-color:#B09C64"/>
				<stop  offset="0.58" style="stop-color:#E0CA91"/>
				<stop  offset="1" style="stop-color:#A8965D"/>
			</linearGradient>
			<path style="fill:url(#SVGID_00000114765227996740438050000011010286180269997737_);" d="M65.9,521.1c1.2,0.4,1.8,1.6,1.4,2.8
				s-1.6,1.8-2.8,1.4s-1.8-1.6-1.4-2.8S64.8,520.8,65.9,521.1L65.9,521.1z"/>
			
				<linearGradient id="SVGID_00000064355292461615058200000012190273497907276700_" gradientUnits="userSpaceOnUse" x1="55.76" y1="-1049.55" x2="62.55" y2="-1049.55" gradientTransform="matrix(1 0 0 -1 0 -520)">
				<stop  offset="0" style="stop-color:#B09C64"/>
				<stop  offset="0.58" style="stop-color:#E0CA91"/>
				<stop  offset="1" style="stop-color:#A8965D"/>
			</linearGradient>
			<path style="fill:url(#SVGID_00000064355292461615058200000012190273497907276700_);" d="M60.2,526.3c1.8,0.6,2.8,2.5,2.2,4.3
				s-2.5,2.8-4.3,2.2s-2.7-2.5-2.1-4.3S58.5,525.7,60.2,526.3z"/>
			
				<linearGradient id="SVGID_00000139272522802593353400000011548045940702429882_" gradientUnits="userSpaceOnUse" x1="44.26" y1="-1002.6288" x2="77.6064" y2="-1002.6288" gradientTransform="matrix(1 0 0 -1 0 -520)">
				<stop  offset="0" style="stop-color:#B09C64"/>
				<stop  offset="0.58" style="stop-color:#E0CA91"/>
				<stop  offset="1" style="stop-color:#A8965D"/>
			</linearGradient>
			<path style="fill:url(#SVGID_00000139272522802593353400000011548045940702429882_);" d="M75.3,480c-1.8,7.4-4.9,14.7-10.3,20.1
				s-13.3,8.6-20.8,6.9l0,0c3.8-0.2,6.4-4.2,7-8s-0.1-7.7,0.4-11.5c0.6-4.9,3.2-9.4,7.1-12.4s8.9-4.4,12.8-7.5c3-2.4,5.1-6,5.9-9.8
				C77.9,465.2,77.1,472.7,75.3,480L75.3,480L75.3,480z"/>
			
				<linearGradient id="SVGID_00000171709522739578742880000006371536785867780279_" gradientUnits="userSpaceOnUse" x1="84.3" y1="-952.6241" x2="122.26" y2="-952.6241" gradientTransform="matrix(1 0 0 -1 0 -520)">
				<stop  offset="0" style="stop-color:#B09C64"/>
				<stop  offset="0.58" style="stop-color:#E0CA91"/>
				<stop  offset="1" style="stop-color:#A8965D"/>
			</linearGradient>
			<path style="fill:url(#SVGID_00000171709522739578742880000006371536785867780279_);" d="M85.4,406.6c-0.6,4.7,2.4,9.4,6.2,12.4
				c4,3.2,8.9,5.2,13,8.3c4.8,3.7,8.5,8.9,10.2,14.8c0.9,3,1.3,6.1,2.3,9.1s2.5,5.9,5.2,7.5c-12,0.7-23.9-6.3-30.5-16.4
				c-6.8-10.4-8.6-23.5-6.7-35.8L85.4,406.6L85.4,406.6z"/>
			
				<linearGradient id="SVGID_00000070096861981822809710000011695785398908413597_" gradientUnits="userSpaceOnUse" x1="104.89" y1="-1005.9693" x2="109.05" y2="-1005.9693" gradientTransform="matrix(1 0 0 -1 0 -520)">
				<stop  offset="0" style="stop-color:#B09C64"/>
				<stop  offset="0.58" style="stop-color:#E0CA91"/>
				<stop  offset="1" style="stop-color:#A8965D"/>
			</linearGradient>
			<path style="fill:url(#SVGID_00000070096861981822809710000011695785398908413597_);" d="M107.6,484c1.1,0.4,1.7,1.5,1.3,2.6
				s-1.6,1.7-2.6,1.3s-1.7-1.5-1.3-2.6S106.5,483.7,107.6,484z"/>
			
				<linearGradient id="SVGID_00000072256030597979369900000004577850956968087984_" gradientUnits="userSpaceOnUse" x1="111.37" y1="-993.3" x2="117.76" y2="-993.3" gradientTransform="matrix(1 0 0 -1 0 -520)">
				<stop  offset="0" style="stop-color:#B09C64"/>
				<stop  offset="0.58" style="stop-color:#E0CA91"/>
				<stop  offset="1" style="stop-color:#A8965D"/>
			</linearGradient>
			<circle style="fill:url(#SVGID_00000072256030597979369900000004577850956968087984_);" cx="114.6" cy="473.3" r="3.2"/>
			
				<linearGradient id="SVGID_00000012455616175784399150000004950431920767339944_" gradientUnits="userSpaceOnUse" x1="94.2" y1="-988.9" x2="108.4" y2="-988.9" gradientTransform="matrix(1 0 0 -1 0 -520)">
				<stop  offset="0" style="stop-color:#B09C64"/>
				<stop  offset="0.58" style="stop-color:#E0CA91"/>
				<stop  offset="1" style="stop-color:#A8965D"/>
			</linearGradient>
			<circle style="fill:url(#SVGID_00000012455616175784399150000004950431920767339944_);" cx="101.3" cy="468.9" r="7.1"/>
		</g>
		
			<linearGradient id="SVGID_00000147211212724502643050000013778862095147184304_" gradientUnits="userSpaceOnUse" x1="154.4" y1="-1012.2132" x2="488.5356" y2="-1012.2132" gradientTransform="matrix(1 0 0 -1 0 -520)">
			<stop  offset="0" style="stop-color:#B09C64"/>
			<stop  offset="0.58" style="stop-color:#E0CA91"/>
			<stop  offset="1" style="stop-color:#A8965D"/>
		</linearGradient>
		<path style="fill:url(#SVGID_00000147211212724502643050000013778862095147184304_);" d="M154.4,584.8
			c35.1,27.9,79.3,43.7,123.8,44.7s89.1-13,124.7-39.5c9-6.5,17.4-13.8,25.2-21.7c7.7-8,14.8-16.5,21.2-25.6
			c12.9-18.1,22.1-38.6,28.6-59.9c12.5-42.7,10.5-89.6-5.6-131.5c8.9,20.6,14.2,42.8,15.8,65.3c1.5,22.5-0.9,45.3-6.8,67.1
			c-12,43.7-39,83.2-75.7,109.9c-9.2,6.7-18.8,12.7-29,17.7c-10.1,5-20.7,9.3-31.5,12.7c-21.6,6.8-44.4,9.8-67,9
			c-11.3-0.3-22.6-1.9-33.6-4.1c-11.1-2.3-21.9-5.4-32.5-9.5C191,611.1,171.3,599.5,154.4,584.8L154.4,584.8L154.4,584.8z"/>
		
			<linearGradient id="SVGID_00000132065205197161625180000002850324189243414409_" gradientUnits="userSpaceOnUse" x1="78.7748" y1="-900.7722" x2="420.6" y2="-900.7722" gradientTransform="matrix(1 0 0 -1 0 -520)">
			<stop  offset="0" style="stop-color:#B09C64"/>
			<stop  offset="0.58" style="stop-color:#E0CA91"/>
			<stop  offset="1" style="stop-color:#A8965D"/>
		</linearGradient>
		<path style="fill:url(#SVGID_00000132065205197161625180000002850324189243414409_);" d="M420.6,277.3
			c-36.9-32.5-85.5-50.8-134.3-51.1c-24.4-0.1-48.7,4.1-71.5,12.6c-22.8,8.4-44.1,21-62.5,36.9c-18.5,15.8-34,35-45.6,56.4
			c-5.8,10.7-10.6,21.9-14.5,33.5c-1.9,5.8-3.5,11.6-4.9,17.6c-1.4,5.9-2.5,11.9-3.4,17.9c-3.4,24.1-2.6,48.9,2.9,72.7
			c5.1,23.9,12.5,44.4,25.8,65.1c-7-10.1-10.8-18.4-15.9-29.7c-5.1-11.2-9.2-22.9-12.1-34.9c-6-24-7.3-49.1-4.2-73.7
			c1.6-12.3,4.2-24.5,8.1-36.3s8.7-23.3,14.6-34.2c11.7-21.9,27.4-41.7,46.2-57.9c37.7-32.4,87.4-50.7,137-49.5
			c24.8,0.5,49.4,5.7,72.4,14.8C381.6,247,402.8,260.4,420.6,277.3L420.6,277.3L420.6,277.3z"/>
	</g>
	<g>
		
			<linearGradient id="SVGID_00000145041062262313500730000013893832005851969179_" gradientUnits="userSpaceOnUse" x1="188.37" y1="1883.3999" x2="203.9" y2="1883.3999" gradientTransform="matrix(1 0 0 1 0 -1364)">
			<stop  offset="0" style="stop-color:#B09C64"/>
			<stop  offset="0.58" style="stop-color:#E0CA91"/>
			<stop  offset="1" style="stop-color:#A8965D"/>
		</linearGradient>
		<path style="fill:url(#SVGID_00000145041062262313500730000013893832005851969179_);" d="M202,510.2c-0.5,0.6-0.9,1.3-1.1,2
			c-0.6,1.4-0.9,2.2-1.1,2.5l-0.1,0.1c0-0.1-0.1-0.2-0.1-0.2c-0.3-0.8-0.5-1.4-0.6-1.7s-0.4-0.6-0.7-0.9c-0.8-0.7-1.8-1.1-2.8-1.1
			s-1.8,0.3-2.4,0.8c-0.6,0.5-1,1.2-1,2c0,1.5,1.2,2.6,3.5,3.1l2.3,0.6c3.3,0.8,4.9,2.5,4.9,5.2c0,1.5-0.6,2.8-1.7,3.8
			c-1.1,1-2.5,1.5-4.2,1.5c-1,0-2.2-0.2-3.5-0.5l-1.6-0.4c-0.6-0.2-1.2-0.2-1.6-0.2c-0.6,0-1.1,0.2-1.7,0.5l-0.1-0.2
			c1.1-1.7,1.9-3.3,2.4-4.9l0.2,0.1c0.2,1.4,0.8,2.5,1.7,3.3s2.2,1.2,3.8,1.2c1.2,0,2.2-0.3,2.9-0.8c0.7-0.6,1.1-1.3,1.1-2.3
			c0-1.1-0.5-2-1.5-2.7c-0.7-0.5-2.2-1-4.4-1.4c-1.7-0.3-3-0.9-3.7-1.7c-0.8-0.8-1.2-1.9-1.2-3.3s0.5-2.6,1.6-3.5
			c1-0.9,2.4-1.3,4-1.3c1.1,0,2.3,0.2,3.7,0.6c0.7,0.2,1.2,0.3,1.5,0.3C200.9,510.7,201.4,510.5,202,510.2L202,510.2L202,510.2z
			 M202,518.9c1.2,0.9,1.9,2.2,1.9,3.9s-0.7,3.2-2,4.4s-3,1.8-4.9,1.8c-1,0-1.9-0.1-2.7-0.3l-2.2-0.5c-0.5-0.1-1.1-0.2-1.6-0.2
			s-1,0.1-1.4,0.3l-0.2-0.4c0.5-0.2,1-0.3,1.4-0.3c0.5,0,1.2,0.1,1.9,0.2l2.1,0.5c0.8,0.2,1.7,0.3,2.7,0.3c1.8,0,3.4-0.6,4.7-1.7
			c1.3-1.2,1.9-2.6,1.9-4.2C203.5,521.3,203,520.1,202,518.9L202,518.9L202,518.9z M190.6,518.4l0.5,0.3c0.3,0.5,1.2,1,2.6,1.3
			l2.2,0.5c1.5,0.4,2.5,0.7,3,1s0.8,0.7,1.1,1.2l-0.1,0.1c-0.4-0.5-0.9-0.8-1.3-1s-1.4-0.5-2.8-0.8c-2-0.5-3.3-0.8-4-1.2
			C191.1,519.5,190.7,519,190.6,518.4L190.6,518.4z M192.3,522.9c0.3,1.6,1.2,2.8,2.7,3.5v0.1c-1.7-0.5-2.7-1.7-3.1-3.5L192.3,522.9
			L192.3,522.9z M198.9,513.5c-1-1.1-2.1-1.6-3.2-1.6c-0.7,0-1.3,0.2-1.7,0.6c-0.5,0.4-0.7,0.9-0.7,1.5c0,0.7,0.5,1.4,1.4,2.1
			l0.1,0.1l-0.1,0.1c-1.2-0.5-1.8-1.3-1.8-2.3c0-0.7,0.3-1.3,0.8-1.7c0.5-0.4,1.2-0.7,2-0.7s1.5,0.2,2.1,0.5
			S198.7,512.9,198.9,513.5L198.9,513.5L198.9,513.5z M202.9,510.8l-0.1,0.2c-0.4,0.6-0.7,1.2-1,1.8c-0.6,1.3-1,2.1-1.1,2.2
			l-0.1,0.1l-0.3-0.1l0.1-0.1c0.3-0.6,0.6-1.4,1.1-2.4l0.9-1.8l0.1-0.1L202.9,510.8L202.9,510.8z"/>
		
			<linearGradient id="SVGID_00000152950200786882065270000007179536739653453247_" gradientUnits="userSpaceOnUse" x1="205.77" y1="1883.4501" x2="227.07" y2="1883.4501" gradientTransform="matrix(1 0 0 1 0 -1364)">
			<stop  offset="0" style="stop-color:#B09C64"/>
			<stop  offset="0.58" style="stop-color:#E0CA91"/>
			<stop  offset="1" style="stop-color:#A8965D"/>
		</linearGradient>
		<path style="fill:url(#SVGID_00000152950200786882065270000007179536739653453247_);" d="M219,510.1l-1.4,1.6l2.2,6l0.5-0.3
			l-2-5.4l1.4-1.7l0.4,0.2l-1.4,1.6l1.9,5.1c0.1-0.1,0.2-0.1,0.2-0.2l0.5-0.4c0.3-0.2,0.4-0.4,0.5-0.5c0.2,1,0.6,2,1.1,2.8h-0.6
			c-0.9,0-1.5,0.1-1.9,0.4l2.5,6.7l2.1,1.6h-6.9l1.9-1.6l-1.5-4c-1,1-1.8,2-2.3,2.9l-0.3-0.1c0.5-0.9,1.3-1.9,2.4-3l0.1-0.1
			l-0.3-0.6c-1.1,0.9-2,2-2.7,3.1l-0.2-0.4c-0.5-0.8-1.1-1.6-1.8-2.6l-0.1-0.2c-0.7,1.6-1.1,2.8-1.1,3.8c0,0.6,0.1,1.1,0.3,1.5
			s0.7,1.1,1.4,2c0.1,0.1,0.2,0.2,0.3,0.4h-7.4l-0.3-0.4h7l-0.2-0.3c-0.6-0.7-1-1.3-1.2-1.7s-0.3-0.9-0.3-1.4c0-0.9,0.4-2.3,1.1-4.2
			l-0.6-0.6c-0.1,0.3-0.3,0.7-0.5,1.3l-0.5,1.4c-0.2,0.7-0.4,1.4-0.4,1.9s0.1,0.9,0.3,1.3c0.2,0.3,0.5,0.8,1.1,1.4
			c0.1,0.1,0.1,0.2,0.2,0.3h-6.8c1.3-0.7,2.3-1.6,3.1-2.7c0.8-1.1,1.5-2.9,2.3-5.3l0.1-0.2c-0.5-0.4-1.2-0.7-2.1-0.8
			c0.5-0.7,0.9-1.5,1.2-2.3c0.1,0.1,0.2,0.2,0.2,0.2l0.6,0.6c0.2,0.2,0.5,0.4,0.8,0.6l0.2-0.6l-0.2-0.1c-0.5-0.4-0.8-0.7-1.1-1
			l-0.1-0.1l0.2-0.3c0.5,0.3,0.9,0.7,1.4,1.1l1.9-5.1l-1.4-1.6L219,510.1L219,510.1z M215,512.9l-2.2,5.7c0.7,0.7,1.3,1.4,1.8,2.1
			l0.6,0.9c0,0,0.1,0.1,0.1,0.2c0.1-0.1,0.1-0.1,0.1-0.2l0.2-0.2c0,0,0.1-0.1,0.2-0.2c-0.6-1-1.4-1.9-2.2-2.7l1.8-4.6L215,512.9
			L215,512.9z M215.6,514.5l-1.5,4c0.1,0.1,0.1,0.1,0.1,0.2l0.6,0.6c0.3,0.3,0.7,0.8,1.1,1.5l0.1,0.2c0.4-0.5,0.9-1,1.4-1.5
			L215.6,514.5L215.6,514.5z M223,516.8c0.2,0.8,0.7,1.9,1.5,3.4h-0.3l-1.1-0.1c-0.5,0-0.9-0.1-1.1-0.1h-0.3l2.3,6.1l3,2.7h-7.9
			l-0.3-0.4h7.3l-2.5-2.2l-2.4-6.4c0.3-0.1,0.7-0.1,1.1-0.1c0.5,0,1,0,1.6,0.1l-0.2-0.3c-0.6-1.1-1-2-1.2-2.9L223,516.8L223,516.8z"
			/>
		
			<linearGradient id="SVGID_00000183231738181644471850000018173717591659259027_" gradientUnits="userSpaceOnUse" x1="229.12" y1="1883.4" x2="244.72" y2="1883.4" gradientTransform="matrix(1 0 0 1 0 -1364)">
			<stop  offset="0" style="stop-color:#B09C64"/>
			<stop  offset="0.58" style="stop-color:#E0CA91"/>
			<stop  offset="1" style="stop-color:#A8965D"/>
		</linearGradient>
		<path style="fill:url(#SVGID_00000183231738181644471850000018173717591659259027_);" d="M229.1,510.1h6.5l-1.9,1.9v14.6h0.7
			v-14.5l1.5-1.5l0.2,0.3l-1.3,1.4v14.4c0.4,0,0.8,0.1,1.2,0.1c1.4,0,2.5-0.3,3.3-1c0.7-0.6,1.2-1.7,1.5-3.2
			c0.9,2.5,1.7,4.2,2.6,5.1h-14.3l1.9-1.5v-14.3L229.1,510.1L229.1,510.1z M244.7,527.5l-0.6,1.2h-14.3l-0.3-0.4H244l0.4-0.9
			c-1-1.2-1.8-2.6-2.4-4.1l-0.1-0.2l0.4,0.2l0.1,0.2c0.6,1.3,1.3,2.6,2.2,3.7L244.7,527.5L244.7,527.5z"/>
		
			<linearGradient id="SVGID_00000008111326791646911360000015845972081846732949_" gradientUnits="userSpaceOnUse" x1="246.04" y1="1883.4" x2="254.04" y2="1883.4" gradientTransform="matrix(1 0 0 1 0 -1364)">
			<stop  offset="0" style="stop-color:#B09C64"/>
			<stop  offset="0.58" style="stop-color:#E0CA91"/>
			<stop  offset="1" style="stop-color:#A8965D"/>
		</linearGradient>
		<path style="fill:url(#SVGID_00000008111326791646911360000015845972081846732949_);" d="M246,510.1h6.5l-1.8,1.9v14.2l1.7,1.4
			H246l1.9-1.6v-14.3L246,510.1L246,510.1z M253.1,510.8l-1.4,1.4v13.9l2.3,2.6h-7.1l-0.3-0.4h6.6l-1.9-2.1V512l1.5-1.5L253.1,510.8
			L253.1,510.8z"/>
		
			<linearGradient id="SVGID_00000073723330032215397100000002042358812611792823_" gradientUnits="userSpaceOnUse" x1="264.42" y1="1883.25" x2="281.13" y2="1883.25" gradientTransform="matrix(1 0 0 1 0 -1364)">
			<stop  offset="0" style="stop-color:#B09C64"/>
			<stop  offset="0.58" style="stop-color:#E0CA91"/>
			<stop  offset="1" style="stop-color:#A8965D"/>
		</linearGradient>
		<path style="fill:url(#SVGID_00000073723330032215397100000002042358812611792823_);" d="M265.1,511.9c2.2-1.4,4.6-2.1,7.3-2.1
			c2,0,3.6,0.4,4.8,1.3c1.2,0.9,1.9,2,1.9,3.4c0,1.9-1.1,3.1-3.2,3.7v0.2c0.2,0.1,0.5,0.1,0.8,0.2c1-0.2,1.8-0.7,2.4-1.4
			s0.9-1.6,0.9-2.6c0-1.3-0.5-2.4-1.6-3.4V511l0.2,0.1c1.2,0.9,1.8,2.1,1.8,3.5c0,2-1,3.4-3.1,4.2c0.9,0.4,1.6,1,2.1,1.8
			s0.7,1.6,0.7,2.6c0,1.4-0.5,2.4-1.5,3.3s-2.3,1.2-3.9,1.2h-9.8l1.9-1.6v-5.9c-0.5,0-1.2,0.1-1.9,0.2l-0.1-0.4
			c0.8-0.1,1.5-0.1,2-0.1V519h-0.3c-0.5,0-1.2,0-1.9,0.1l0.6-1.3h1.6v-5.1L265.1,511.9L265.1,511.9z M279.7,520
			c1,0.8,1.5,1.9,1.5,3.4s-0.5,2.8-1.6,3.8s-2.6,1.5-4.7,1.5h-9.3l-0.2-0.4h8.6c1.9,0,3.2-0.2,4.1-0.6c1.8-0.9,2.8-2.3,2.8-4.5
			c0-1.2-0.4-2.3-1.3-3.2H279.7z M269.4,511.7v6.2h0.6v-5.6c0.8-0.4,1.5-0.5,2.3-0.5c0.9,0,1.5,0.2,2,0.5s0.9,0.8,1.3,1.6l-0.4-0.2
			c-0.7-1-1.7-1.5-2.9-1.5c-0.7,0-1.3,0.2-1.9,0.6v5.2h0.6c1.7,0,3-0.3,3.9-0.9c0.9-0.6,1.3-1.5,1.3-2.7c0-1-0.4-1.9-1.1-2.5
			c-0.7-0.6-1.6-1-2.8-1C271.4,510.9,270.4,511.1,269.4,511.7L269.4,511.7z M269.4,519v7.5h0.7v-6.7c0.6,0,1.1-0.1,1.4-0.1
			c1.5,0,2.6,0.1,3.3,0.4c0.7,0.3,1.2,0.8,1.6,1.6h-0.2c-0.4-0.6-1-1.1-1.7-1.3s-1.7-0.4-3-0.4h-1.1v6.4h0.4l2-0.1
			c2.6-0.2,3.9-1.4,3.9-3.7c0-1.4-0.4-2.4-1.3-3s-2.4-0.8-4.8-0.8C270.5,518.9,270.1,519,269.4,519L269.4,519z"/>
		
			<linearGradient id="SVGID_00000064328352357557463720000009811361714942728601_" gradientUnits="userSpaceOnUse" x1="283.93" y1="1883.4" x2="301.61" y2="1883.4" gradientTransform="matrix(1 0 0 1 0 -1364)">
			<stop  offset="0" style="stop-color:#B09C64"/>
			<stop  offset="0.58" style="stop-color:#E0CA91"/>
			<stop  offset="1" style="stop-color:#A8965D"/>
		</linearGradient>
		<path style="fill:url(#SVGID_00000064328352357557463720000009811361714942728601_);" d="M299.3,510.1l-0.2,0.3
			c-0.9,1.1-1.7,2.4-2.2,3.9c-0.1-0.2-0.2-0.4-0.2-0.5c-0.5-1.1-1-1.8-1.6-2.1s-1.6-0.5-3.1-0.5c-0.7,0-1.5,0-2.5,0.1v6.3h0.9V512
			c0.7-0.1,1.4-0.1,2-0.1c1.2,0,2,0.1,2.6,0.4c0.6,0.3,1,0.7,1.5,1.4c-0.1-0.1-0.2-0.2-0.3-0.2c-0.7-0.6-1.3-0.9-1.6-1
			s-1-0.2-1.9-0.2c-0.3,0-0.8,0-1.6,0.1h-0.3v5.2h2.5l1.8-2.4v5.9l-1.8-2.3h-3.7v7.7h0.9v-7h3l0.4,0.4h-3v6.7c1.9,0,3.2-0.1,4-0.4
			c0.8-0.3,1.4-0.8,1.8-1.6l0.7-1.2c0-0.1,0.1-0.2,0.2-0.3c0.2,1,0.5,1.8,0.9,2.4c0.4,0.6,0.9,1.3,1.7,2.1h-15.3l2.1-1.6v-6.1
			c-0.8,0.1-1.5,0.3-2.1,0.7l-0.2-0.3c0.6-0.4,1.3-0.7,2.3-0.8v-0.6h-0.3c-0.9,0-1.8,0.3-2.5,1c0.4-1.5,1.4-2.2,2.9-2.2v-5.8
			l-2.1-1.6h14.3L299.3,510.1L299.3,510.1z M301.6,527.5l-0.7,1.2H286l-0.2-0.4h15l0.5-0.9c-1.3-1.2-2.2-2.5-2.8-3.9l0.4,0.2
			c0.5,1.2,1.3,2.3,2.5,3.5L301.6,527.5L301.6,527.5z M295.9,515.6v6l-0.3-0.2v-6L295.9,515.6z M300,511l-0.1,0.1
			c-1.1,1.5-1.9,2.7-2.2,3.8l-0.2-0.3c0.6-1.4,1.4-2.7,2.4-3.9L300,511L300,511z"/>
		
			<linearGradient id="SVGID_00000146494662688913576830000002652512503774306229_" gradientUnits="userSpaceOnUse" x1="302.93" y1="1883.4501" x2="324.21" y2="1883.4501" gradientTransform="matrix(1 0 0 1 0 -1364)">
			<stop  offset="0" style="stop-color:#B09C64"/>
			<stop  offset="0.58" style="stop-color:#E0CA91"/>
			<stop  offset="1" style="stop-color:#A8965D"/>
		</linearGradient>
		<path style="fill:url(#SVGID_00000146494662688913576830000002652512503774306229_);" d="M316.1,510.1l-1.4,1.6l2.2,6l0.5-0.3
			l-2-5.4l1.4-1.7l0.4,0.2l-1.4,1.6l1.9,5.1c0.1-0.1,0.2-0.1,0.2-0.2l0.5-0.4c0.3-0.2,0.4-0.4,0.5-0.5c0.2,1,0.6,2,1.1,2.8h-0.6
			c-0.9,0-1.5,0.1-1.9,0.4l2.5,6.7l2.1,1.6h-6.9l1.9-1.6l-1.5-4c-1,1-1.8,2-2.3,2.9l-0.3-0.1c0.5-0.9,1.3-1.9,2.4-3l0.1-0.1
			l-0.3-0.6c-1.1,0.9-2,2-2.7,3.1l-0.2-0.4c-0.5-0.8-1.1-1.6-1.8-2.6l-0.1-0.2c-0.7,1.6-1.1,2.8-1.1,3.8c0,0.6,0.1,1.1,0.3,1.5
			c0.2,0.4,0.7,1.1,1.4,2c0.1,0.1,0.2,0.2,0.3,0.4h-7.4l-0.3-0.4h7l-0.2-0.3c-0.6-0.7-1-1.3-1.2-1.7s-0.3-0.9-0.3-1.4
			c0-0.9,0.4-2.3,1.1-4.2l-0.6-0.6c-0.1,0.3-0.3,0.7-0.5,1.3l-0.5,1.4c-0.2,0.7-0.4,1.4-0.4,1.9s0.1,0.9,0.3,1.3
			c0.2,0.3,0.5,0.8,1.1,1.4c0.1,0.1,0.1,0.2,0.2,0.3h-6.8c1.3-0.7,2.3-1.6,3.1-2.7c0.8-1.1,1.5-2.9,2.3-5.3l0.1-0.2
			c-0.5-0.4-1.2-0.7-2.1-0.8c0.5-0.7,0.9-1.5,1.2-2.3c0.1,0.1,0.2,0.2,0.2,0.2l0.6,0.6c0.2,0.2,0.5,0.4,0.8,0.6l0.2-0.6l-0.2-0.1
			c-0.5-0.4-0.8-0.7-1.1-1l-0.1-0.1l0.2-0.3c0.5,0.3,0.9,0.7,1.4,1.1l1.9-5.1l-1.4-1.6L316.1,510.1L316.1,510.1z M312.2,512.9
			l-2.2,5.7c0.7,0.7,1.3,1.4,1.8,2.1l0.6,0.9c0,0,0.1,0.1,0.1,0.2c0.1-0.1,0.1-0.1,0.1-0.2l0.2-0.2c0,0,0.1-0.1,0.2-0.2
			c-0.6-1-1.4-1.9-2.2-2.7l1.8-4.6L312.2,512.9z M312.8,514.5l-1.5,4c0.1,0.1,0.1,0.1,0.1,0.2l0.6,0.6c0.3,0.3,0.7,0.8,1.1,1.5
			l0.1,0.2c0.4-0.5,0.9-1,1.4-1.5L312.8,514.5L312.8,514.5z M320.2,516.8c0.2,0.8,0.7,1.9,1.5,3.4h-0.3l-1.1-0.1
			c-0.5,0-0.9-0.1-1.1-0.1h-0.3l2.3,6.1l3,2.7h-7.9l-0.3-0.4h7.3l-2.5-2.2l-2.4-6.4c0.3-0.1,0.7-0.1,1.1-0.1c0.5,0,1,0,1.6,0.1
			l-0.2-0.3c-0.6-1.1-1-2-1.2-2.9L320.2,516.8z"/>
		
			<linearGradient id="SVGID_00000038406927428019560130000006114352141451035790_" gradientUnits="userSpaceOnUse" x1="326.18" y1="1883.5499" x2="342.44" y2="1883.5499" gradientTransform="matrix(1 0 0 1 0 -1364)">
			<stop  offset="0" style="stop-color:#B09C64"/>
			<stop  offset="0.58" style="stop-color:#E0CA91"/>
			<stop  offset="1" style="stop-color:#A8965D"/>
		</linearGradient>
		<path style="fill:url(#SVGID_00000038406927428019560130000006114352141451035790_);" d="M342,510.1l-2.4,2v8.8
			c0,1.6-0.1,2.8-0.2,3.5s-0.3,1.3-0.6,1.8c-0.8,1.2-2.3,1.8-4.6,1.8s-4.1-0.6-5-1.8c-0.8-0.9-1.1-2.7-1.1-5.3v-9.1l-1.9-1.7h6.5
			l-1.9,1.8v11c0,1.4,0.3,2.3,0.8,2.9c0.6,0.6,1.5,0.9,2.9,0.9c1.5,0,2.5-0.4,3-1.3c0.4-0.7,0.7-2.2,0.7-4.5l0.1-8.8l-2.1-2
			L342,510.1L342,510.1z M342.4,511l-1.9,1.5v8.5c0,2.8-0.2,4.6-0.7,5.4c-0.9,1.7-2.6,2.6-5.2,2.6c-2.2,0-3.9-0.6-5.1-1.7l0.1,0.1
			l0.5,0.3c1.1,0.7,2.6,1,4.3,1c2.5,0,4.2-0.8,5-2.4c0.4-0.9,0.7-2.6,0.7-5.2v-8.8l2-1.7L342.4,511L342.4,511z M333.2,510.8
			l-1.3,1.4v11.1l0.4,1.7c0.2,0.3,0.6,0.8,1.2,1.3v0.1c-0.8-0.3-1.3-0.8-1.6-1.4s-0.4-1.5-0.4-2.7V512l1.5-1.5L333.2,510.8
			L333.2,510.8z"/>
		
			<linearGradient id="SVGID_00000152977940740534591230000005213779600339629712_" gradientUnits="userSpaceOnUse" x1="343.66" y1="1883.4" x2="360.98" y2="1883.4" gradientTransform="matrix(1 0 0 1 0 -1364)">
			<stop  offset="0" style="stop-color:#B09C64"/>
			<stop  offset="0.58" style="stop-color:#E0CA91"/>
			<stop  offset="1" style="stop-color:#A8965D"/>
		</linearGradient>
		<path style="fill:url(#SVGID_00000152977940740534591230000005213779600339629712_);" d="M360.1,510.1c-0.1,0.2-0.1,0.3-0.2,0.3
			L359,512c-0.3,0.6-0.6,1.3-0.9,2.2v0.1l-0.1-0.1V514c-0.3-1-0.6-1.8-1.1-2.2c-0.5-0.4-1.2-0.6-2.2-0.6c-0.4,0-0.8,0-1.2,0.1h-0.2
			v14.8l1.6,1.5h-6.2l1.9-1.6v-13.6h-1c-0.9,0-1.6,0.2-2,0.6s-0.6,1-0.7,1.9h-0.4c0.1-1.1,0.4-1.8,0.8-2.2s1.2-0.6,2.2-0.6h1v-0.7
			c-0.5-0.1-0.9-0.1-1.3-0.1c-1.2,0-2,0.2-2.5,0.7c-0.5,0.5-0.8,1.3-0.9,2.4h-0.2c-0.4-1.3-1-2.7-1.8-4.2l-0.1-0.1H360.1
			L360.1,510.1z M357.3,513.1c-0.7-0.5-1.5-0.7-2.5-0.7h-0.7l0.1,13.7l2.2,2.6h-7l-0.3-0.4h6.5l-1.8-2.1V512h0.7
			c0.9,0,1.5,0.1,1.9,0.2S357.1,512.6,357.3,513.1L357.3,513.1z M361,510.9c-0.6,0.8-1.3,2.1-2,4l-0.1,0.1l-0.3-0.3v-0.1
			c0.7-1.9,1.3-3.2,2-3.9l0.1-0.1L361,510.9z"/>
		
			<linearGradient id="SVGID_00000026882699851883423760000005157192930464395432_" gradientUnits="userSpaceOnUse" x1="361.46" y1="1881" x2="382.4" y2="1881" gradientTransform="matrix(1 0 0 1 0 -1364)">
			<stop  offset="0" style="stop-color:#B09C64"/>
			<stop  offset="0.58" style="stop-color:#E0CA91"/>
			<stop  offset="1" style="stop-color:#A8965D"/>
		</linearGradient>
		<path style="fill:url(#SVGID_00000026882699851883423760000005157192930464395432_);" d="M381.8,505.2l0.1,0.1l-0.1,0.2
			c-1.6,1.7-3,3.4-4,5.2c-0.4,0.7-0.7,1.1-0.9,1.4l-5.1,8.1v5.6l2,1.8h-6.7l2-1.8v-5.6l-3.3-5l-0.7-1.1c-0.6-1-1.2-1.8-1.6-2.2
			c-0.4-0.5-1-1-1.8-1.7l-0.2-0.1h6.9l-1.7,1.8l4.6,6.9l0.4-0.7l-4.1-6.2l1.4-1.4l0.3,0.2l-1.2,1.1l3.8,5.8l3.1-4.8
			c0.9-1.4,1.3-2.5,1.3-3.1s-0.4-1.2-1.2-2c2.7-0.6,4.8-1.4,6.5-2.4L381.8,505.2L381.8,505.2z M382.4,506.1v0.6l-0.1,0.1
			c-0.8,0.7-1.4,1.5-2,2.2s-1.4,2-2.5,3.7l-4.9,7.8v5.4l2.4,2.9h-8.6l-0.2-0.4h8l-2.1-2.6v-5.5l5-8l0.8-1.3
			C379.8,508.9,381.1,507.2,382.4,506.1L382.4,506.1z"/>
	</g>
	<g>
		<path class="st77" d="M248.9,540.2c-0.5-0.2-1.1-0.4-2-0.6s-1.5-0.4-1.8-0.7s-0.5-0.6-0.5-1s0.2-0.9,0.6-1.3
			c0.4-0.4,1-0.6,1.7-0.6c1.3,0,2.2,0.8,2.8,2.4h0.4v-2.7h-0.3c-0.1,0.2-0.3,0.5-0.5,0.6c-0.7-0.5-1.5-0.8-2.3-0.8
			c-1,0-1.7,0.3-2.3,0.9s-0.8,1.3-0.8,2.1c0,0.6,0.2,1.1,0.5,1.6s0.7,0.8,1.2,1s1.1,0.4,1.9,0.5c0.8,0.1,1.5,0.4,1.8,0.8
			c0.4,0.4,0.6,0.8,0.6,1.4c0,0.7-0.3,1.2-0.8,1.6c-0.5,0.4-1.1,0.6-1.8,0.6s-1.3-0.2-1.8-0.7c-0.6-0.5-1-1.2-1.3-2.1h-0.3v2.9h0.3
			l0.7-0.7c0.8,0.6,1.6,0.9,2.4,0.9c1,0,1.8-0.3,2.5-1s1-1.5,1-2.6c0-0.7-0.2-1.3-0.5-1.8S249.4,540.4,248.9,540.2L248.9,540.2z"/>
		<path class="st77" d="M255.3,540.2c-0.5,0.1-1,0.1-1.5,0.1h-1.1v0.4h1.1v5.3h-1.1v0.4h3.6V546h-1L255.3,540.2L255.3,540.2
			L255.3,540.2z"/>
		<path class="st77" d="M254.6,538c0.2,0,0.4-0.1,0.6-0.2c0.2-0.2,0.2-0.4,0.2-0.6s-0.1-0.4-0.3-0.6c-0.2-0.2-0.4-0.2-0.6-0.2
			s-0.4,0.1-0.6,0.2c-0.2,0.2-0.3,0.4-0.3,0.6s0.1,0.4,0.2,0.6C254.2,537.9,254.4,538,254.6,538L254.6,538z"/>
		<path class="st77" d="M264.8,542.8c0-0.7-0.1-1.2-0.2-1.5s-0.3-0.6-0.6-0.8c-0.3-0.2-0.7-0.4-1.1-0.4c-1,0-1.7,0.5-2.3,1.6l0,0
			v-1.5c-0.6,0.1-1.2,0.1-1.9,0.1H258v0.4h1.1v5.3H258v0.4h3.6V546h-1v-2.6c0-0.9,0.2-1.6,0.6-2.1s0.9-0.8,1.4-0.8
			c0.3,0,0.5,0.1,0.6,0.3s0.1,0.6,0.1,1.2v3.9h-1v0.4h3.8V546h-1.2L264.8,542.8L264.8,542.8L264.8,542.8z"/>
		<path class="st77" d="M271,546.3c-0.5,0-0.8-0.1-1.1-0.4c-0.2-0.3-0.3-0.6-0.4-1.1c0-0.5-0.1-1.1-0.1-2.1s0.1-1.6,0.4-1.9
			c0.3-0.3,0.7-0.4,1.2-0.4c0.3,0,0.6,0.1,0.8,0.2c0.2,0.1,0.3,0.2,0.3,0.4c0,0.1-0.1,0.2-0.2,0.3c-0.1,0.2-0.2,0.3-0.2,0.5
			s0.1,0.4,0.2,0.6s0.3,0.2,0.6,0.2c0.2,0,0.4-0.1,0.6-0.2c0.1-0.2,0.2-0.4,0.2-0.6c0-0.4-0.2-0.8-0.6-1.1s-1-0.5-1.6-0.5
			c-0.9,0-1.7,0.3-2.3,1s-0.9,1.4-0.9,2.3c0,0.8,0.3,1.6,0.9,2.3s1.4,1,2.2,1c0.6,0,1.2-0.2,1.7-0.6c0.5-0.4,0.8-1,0.9-1.7h-0.3
			C272.8,545.6,272,546.3,271,546.3L271,546.3z"/>
		<path class="st77" d="M281.2,542.9c0-0.9-0.3-1.6-0.8-2.1s-1.1-0.7-1.8-0.7c-0.8,0-1.5,0.3-2.1,0.9c-0.6,0.6-0.9,1.4-0.9,2.3
			s0.3,1.7,0.9,2.3s1.3,0.9,2.2,0.9c0.6,0,1.1-0.2,1.6-0.6c0.5-0.4,0.8-0.9,1-1.7H281c-0.4,1.3-1.1,1.9-2.2,1.9
			c-0.5,0-0.9-0.2-1.1-0.5c-0.2-0.4-0.3-1.3-0.3-2.8L281.2,542.9L281.2,542.9L281.2,542.9z M277.2,541.6c0-0.3,0.1-0.6,0.3-0.8
			c0.2-0.2,0.5-0.3,0.9-0.3c0.8,0,1.1,0.4,1.1,1.2c0,0.2,0,0.5-0.1,0.8h-2.3v-0.9H277.2z"/>
		<path class="st77" d="M293.9,544.2c0,0.4-0.1,0.7-0.1,0.8c-0.1,0.1-0.4,0.2-1.1,0.2h-3.6c0.4-0.5,1.1-1.2,2.1-2.1
			c1-0.9,1.8-1.7,2.3-2.4s0.8-1.3,0.8-2.1c0-0.7-0.3-1.3-0.9-1.8c-0.6-0.4-1.3-0.7-2.1-0.7s-1.5,0.2-2,0.7s-0.8,1-0.8,1.7
			c0,0.4,0.1,0.8,0.3,1c0.2,0.3,0.5,0.4,0.8,0.4c0.2,0,0.4-0.1,0.6-0.2s0.2-0.3,0.2-0.6c0-0.2-0.1-0.4-0.2-0.6
			c-0.1-0.2-0.3-0.2-0.5-0.2s-0.3,0.1-0.5,0.2c-0.1,0-0.1,0.1-0.1,0.1c-0.1,0-0.1-0.1-0.1-0.3c0-0.4,0.2-0.8,0.5-1.1
			s0.8-0.5,1.3-0.5c0.6,0,1.1,0.2,1.4,0.7s0.5,1.1,0.5,1.8c0,1.3-0.6,2.5-1.8,3.6s-2.1,2-2.7,2.7v0.9h5.9l0.3-2.9H294L293.9,544.2
			L293.9,544.2z"/>
		<path class="st77" d="M300.1,536.1c-0.9,0-1.7,0.5-2.3,1.6s-1,2.3-1,3.7c0,1.3,0.3,2.5,1,3.5s1.4,1.6,2.3,1.6s1.7-0.5,2.3-1.6
			s1-2.3,1-3.6s-0.3-2.5-1-3.6S301,536.1,300.1,536.1L300.1,536.1z M301.7,542.6c0,1.4-0.1,2.3-0.4,2.9s-0.7,0.8-1.2,0.8
			c-1.1,0-1.6-1.1-1.6-3.2v-3c0-1.3,0.1-2.2,0.4-2.7s0.7-0.8,1.2-0.8c1,0,1.6,1.1,1.6,3.3V542.6z"/>
		<path class="st77" d="M311.4,544.2c0,0.4-0.1,0.7-0.1,0.8s-0.4,0.2-1.1,0.2h-3.6c0.4-0.5,1.1-1.2,2.1-2.1s1.8-1.7,2.3-2.4
			s0.8-1.3,0.8-2.1c0-0.7-0.3-1.3-0.9-1.8s-1.3-0.7-2.1-0.7s-1.5,0.2-2,0.7s-0.8,1-0.8,1.7c0,0.4,0.1,0.8,0.3,1s0.5,0.4,0.8,0.4
			c0.2,0,0.4-0.1,0.6-0.2s0.2-0.3,0.2-0.6c0-0.2-0.1-0.4-0.2-0.6s-0.3-0.2-0.5-0.2s-0.3,0.1-0.5,0.2c-0.1,0-0.1,0.1-0.1,0.1
			c-0.1,0-0.1-0.1-0.1-0.3c0-0.4,0.2-0.8,0.5-1.1s0.8-0.5,1.3-0.5c0.6,0,1.1,0.2,1.4,0.7s0.5,1.1,0.5,1.8c0,1.3-0.6,2.5-1.8,3.6
			s-2.1,2-2.7,2.7v0.9h5.9l0.3-2.9h-0.4L311.4,544.2L311.4,544.2z"/>
		<path class="st77" d="M319.9,537.8c-0.6-1.1-1.4-1.6-2.3-1.6s-1.7,0.5-2.3,1.6s-1,2.3-1,3.7c0,1.3,0.3,2.5,1,3.5s1.4,1.6,2.3,1.6
			s1.7-0.5,2.3-1.6s1-2.3,1-3.6S320.6,538.9,319.9,537.8L319.9,537.8z M319.2,542.6c0,1.4-0.1,2.3-0.4,2.9s-0.7,0.8-1.2,0.8
			c-1.1,0-1.6-1.1-1.6-3.2v-3c0-1.3,0.1-2.2,0.4-2.7s0.7-0.8,1.2-0.8c1,0,1.6,1.1,1.6,3.3V542.6z"/>
	</g>
	<g>
		<path class="st77" d="M185.6,541.5c0-0.5,0.2-1,0.6-1.4s0.9-0.6,1.4-0.6c0.6,0,1.1,0.2,1.5,0.6c0.4,0.4,0.6,0.9,0.6,1.4
			s-0.2,1-0.6,1.4c-0.4,0.4-0.9,0.6-1.5,0.6c-0.5,0-1-0.2-1.4-0.6C185.8,542.5,185.6,542,185.6,541.5z"/>
		<path class="st77" d="M196.4,541.5c0-0.5,0.2-1,0.6-1.4s0.9-0.6,1.4-0.6c0.6,0,1.1,0.2,1.5,0.6c0.4,0.4,0.6,0.9,0.6,1.4
			s-0.2,1-0.6,1.4c-0.4,0.4-0.9,0.6-1.5,0.6c-0.5,0-1-0.2-1.4-0.6C196.6,542.5,196.4,542,196.4,541.5z"/>
		<path class="st77" d="M207.2,541.5c0-0.5,0.2-1,0.6-1.4s0.9-0.6,1.4-0.6c0.6,0,1.1,0.2,1.4,0.6c0.4,0.4,0.6,0.9,0.6,1.4
			s-0.2,1-0.6,1.4c-0.4,0.4-0.9,0.6-1.4,0.6s-1-0.2-1.4-0.6C207.4,542.5,207.2,542,207.2,541.5z"/>
		<path class="st77" d="M218,541.5c0-0.5,0.2-1,0.6-1.4c0.4-0.4,0.9-0.6,1.4-0.6c0.6,0,1.1,0.2,1.5,0.6c0.4,0.4,0.6,0.9,0.6,1.4
			s-0.2,1-0.6,1.4c-0.4,0.4-0.9,0.6-1.5,0.6c-0.5,0-1-0.2-1.4-0.6C218.2,542.5,218,542,218,541.5z"/>
		<path class="st77" d="M228.9,541.5c0-0.5,0.2-1,0.6-1.4c0.4-0.4,0.9-0.6,1.4-0.6c0.6,0,1.1,0.2,1.5,0.6c0.4,0.4,0.6,0.9,0.6,1.4
			s-0.2,1-0.6,1.4c-0.4,0.4-0.9,0.6-1.5,0.6c-0.5,0-1-0.2-1.4-0.6C229.1,542.5,228.9,542,228.9,541.5z"/>
		<path class="st77" d="M329.4,541.5c0-0.5,0.2-1,0.6-1.4s0.9-0.6,1.4-0.6c0.6,0,1.1,0.2,1.5,0.6c0.4,0.4,0.6,0.9,0.6,1.4
			s-0.2,1-0.6,1.4s-0.9,0.6-1.5,0.6c-0.5,0-1-0.2-1.4-0.6C329.6,542.5,329.4,542,329.4,541.5z"/>
		<path class="st77" d="M340.2,541.5c0-0.5,0.2-1,0.6-1.4s0.9-0.6,1.4-0.6c0.6,0,1.1,0.2,1.5,0.6c0.4,0.4,0.6,0.9,0.6,1.4
			s-0.2,1-0.6,1.4s-0.9,0.6-1.5,0.6c-0.5,0-1-0.2-1.4-0.6C340.4,542.5,340.2,542,340.2,541.5z"/>
		<path class="st77" d="M351.1,541.5c0-0.5,0.2-1,0.6-1.4s0.9-0.6,1.4-0.6c0.6,0,1.1,0.2,1.5,0.6c0.4,0.4,0.6,0.9,0.6,1.4
			s-0.2,1-0.6,1.4s-0.9,0.6-1.5,0.6c-0.5,0-1-0.2-1.4-0.6C351.3,542.5,351.1,542,351.1,541.5z"/>
		<path class="st77" d="M361.9,541.5c0-0.5,0.2-1,0.6-1.4s0.9-0.6,1.4-0.6c0.6,0,1.1,0.2,1.5,0.6c0.4,0.4,0.6,0.9,0.6,1.4
			s-0.2,1-0.6,1.4s-0.9,0.6-1.5,0.6c-0.5,0-1-0.2-1.4-0.6C362.1,542.5,361.9,542,361.9,541.5z"/>
		<path class="st77" d="M372.7,541.5c0-0.5,0.2-1,0.6-1.4s0.9-0.6,1.4-0.6c0.6,0,1.1,0.2,1.5,0.6c0.4,0.4,0.6,0.9,0.6,1.4
			s-0.2,1-0.6,1.4s-0.9,0.6-1.5,0.6c-0.5,0-1-0.2-1.4-0.6C372.9,542.5,372.7,542,372.7,541.5z"/>
	</g>
</g>
</svg>
